    <svg
      xmlns="http://www.w3.org/2000/svg"
      version="1.0"
      width="100"
      height="100"
      viewBox="0 0 900.000000 900.000000"
      preserveAspectRatio="xMidYMid meet"
    >
      <g
        transform="translate(0.000000,900.000000) scale(0.100000,-0.100000)"
        fill="#1565a5"
        stroke="none"
      >
        <path d="M4260 8133 c-52 -2 -97 -7 -100 -12 -5 -7 -179 -29 -257 -32 -18 -1 -33 -5 -33 -9 0 -4 -31 -11 -70 -15 -38 -4 -70 -12 -70 -17 0 -6 -11 -8 -25 -6 -14 3 -25 2 -25 -2 0 -4 -22 -10 -50 -14 -27 -4 -50 -11 -50 -15 0 -5 -20 -12 -45 -15 -24 -4 -47 -12 -51 -17 -3 -6 -12 -8 -20 -5 -7 3 -16 1 -19 -4 -3 -4 -23 -11 -45 -15 -22 -4 -40 -10 -40 -15 0 -5 -18 -11 -40 -15 -22 -4 -40 -11 -40 -16 0 -4 -7 -6 -15 -3 -8 4 -15 2 -15 -4 0 -6 5 -12 11 -14 6 -2 -8 -3 -31 -3 -25 0 -45 -6 -50 -15 -5 -8 -10 -11 -10 -6 0 6 -5 5 -12 -2 -7 -7 -19 -12 -28 -12 -8 0 -22 -5 -30 -10 -13 -9 -13 -11 0 -21 12 -8 10 -9 -8 -4 -14 4 -39 -2 -68 -15 -39 -20 -43 -24 -28 -34 14 -11 15 -16 5 -32 -11 -17 -11 -17 -6 4 6 21 5 23 -14 13 -17 -10 -20 -9 -15 4 4 8 1 15 -5 15 -6 0 -11 -4 -11 -10 0 -5 -3 -9 -7 -8 -14 2 -63 -21 -63 -30 0 -5 -17 -14 -37 -21 -44 -15 -89 -48 -79 -58 4 -4 11 -1 16 7 6 8 10 13 11 10 0 -3 2 -13 4 -22 3 -17 -17 -15 -43 5 -7 5 -16 7 -19 3 -4 -4 -1 -11 6 -15 9 -6 5 -8 -12 -8 -27 0 -100 -50 -92 -63 3 -5 -4 -6 -14 -3 -13 3 -24 -2 -33 -16 -7 -12 -18 -21 -25 -21 -7 0 -16 -8 -22 -17 -5 -10 -13 -15 -17 -11 -4 4 -20 -6 -36 -22 -15 -17 -32 -30 -36 -30 -5 0 -19 -11 -31 -24 -22 -24 -23 -66 0 -66 14 0 11 -17 -5 -23 -11 -4 -13 -1 -9 10 4 11 2 14 -5 9 -8 -4 -10 -2 -6 7 3 8 0 18 -6 22 -17 11 -124 -96 -107 -107 7 -5 2 -6 -13 -3 -21 5 -36 -5 -94 -64 -39 -39 -68 -73 -65 -75 2 -3 -33 -44 -78 -92 -46 -48 -83 -94 -82 -103 0 -11 3 -10 9 5 4 12 16 24 25 27 11 5 14 3 8 -6 -4 -6 -8 -19 -8 -27 0 -9 -10 -15 -25 -15 -54 0 -91 -79 -49 -105 7 -5 10 -12 6 -16 -4 -4 -14 1 -22 12 -9 12 -14 14 -15 6 0 -7 -5 -10 -11 -6 -8 5 -6 10 5 16 9 5 16 14 16 20 0 6 -9 3 -19 -6 -24 -22 -24 -68 1 -55 11 6 19 5 24 -3 4 -7 3 -8 -4 -4 -7 4 -12 3 -12 -1 0 -5 -9 -9 -21 -10 -14 -1 -19 3 -15 13 3 8 1 14 -5 14 -5 0 -14 -11 -19 -25 -5 -14 -14 -25 -20 -25 -7 0 -8 -6 -1 -18 10 -20 -3 -52 -16 -39 -4 5 -1 12 7 17 11 7 11 10 2 10 -7 0 -16 -8 -19 -17 -4 -10 -13 -23 -22 -29 -8 -6 -12 -18 -8 -27 4 -10 2 -16 -5 -14 -6 1 -18 -11 -27 -28 -9 -16 -21 -33 -27 -37 -7 -4 -15 -20 -19 -35 -3 -15 -12 -32 -20 -37 -7 -6 -16 -22 -20 -36 -5 -19 -4 -21 4 -10 13 18 13 3 1 -25 -5 -11 -9 -14 -9 -7 -1 6 -6 12 -12 12 -6 0 -9 -6 -7 -12 3 -7 -4 -21 -13 -32 -10 -10 -15 -24 -11 -30 4 -7 8 -4 10 7 2 10 12 17 25 16 15 -1 17 -3 6 -6 -9 -2 -21 -14 -27 -26 -6 -12 -11 -16 -11 -9 -1 14 -21 17 -21 3 0 -5 7 -17 16 -25 14 -15 14 -16 0 -16 -9 0 -16 5 -16 12 0 6 -6 3 -14 -7 -8 -11 -12 -24 -8 -29 3 -5 9 -1 14 10 7 15 7 14 3 -6 -2 -14 -5 -31 -5 -38 0 -7 -5 -10 -10 -7 -6 4 -8 10 -5 15 3 5 1 11 -4 14 -10 6 -21 -41 -17 -70 2 -10 1 -13 -1 -6 -3 6 -9 12 -14 12 -12 0 -11 -7 1 -31 10 -18 -3 -29 -13 -11 -2 4 -2 1 0 -6 1 -8 3 -23 4 -35 l0 -22 9 23 c5 12 12 22 14 22 3 0 1 -10 -3 -22 -5 -13 -14 -22 -20 -21 -6 2 -11 -2 -11 -7 0 -6 -5 -10 -12 -10 -9 0 -9 3 0 12 15 15 16 48 1 48 -5 0 -7 -5 -4 -10 4 -6 2 -17 -4 -23 -5 -7 -8 -23 -4 -35 4 -17 9 -19 22 -12 13 6 18 5 18 -4 0 -16 -44 -18 -50 -2 -3 6 -3 -2 -1 -19 3 -23 1 -26 -6 -15 -9 13 -11 13 -20 0 -5 -8 -10 -23 -10 -32 0 -9 -5 -20 -10 -23 -6 -4 -7 -11 -3 -18 3 -6 7 -34 7 -63 1 -39 -2 -50 -12 -46 -8 3 -11 13 -8 23 3 11 9 28 12 39 4 11 2 20 -4 20 -6 0 -13 -18 -17 -40 -4 -22 -11 -40 -16 -40 -6 0 -7 -5 -4 -10 4 -6 2 -16 -3 -23 -5 -7 -13 -31 -17 -54 -4 -24 -11 -45 -15 -48 -5 -3 -12 -30 -15 -60 -4 -30 -11 -55 -15 -55 -4 0 -5 -11 -2 -25 2 -14 0 -25 -6 -25 -5 0 -13 -31 -17 -70 -4 -38 -11 -70 -16 -70 -5 0 -7 -11 -3 -25 3 -14 2 -31 -4 -38 -5 -6 -13 -52 -17 -102 -4 -49 -11 -92 -16 -95 -5 -3 -11 -78 -15 -165 -3 -88 -8 -167 -10 -175 -3 -8 -5 -83 -5 -167 1 -185 0 -170 9 -157 4 7 8 -69 9 -168 1 -99 6 -184 11 -191 6 -7 13 -54 17 -104 4 -51 11 -93 16 -93 5 0 10 10 10 23 1 20 2 20 6 2 3 -11 8 -22 12 -25 4 -3 4 -16 0 -30 -7 -25 -7 -24 -8 4 -1 16 -4 26 -8 22 -10 -9 -12 -76 -3 -76 4 0 10 -27 14 -59 4 -36 13 -64 23 -73 14 -11 16 -11 11 3 -5 12 -1 15 20 12 24 -3 24 -2 7 6 -17 8 -18 10 -2 10 9 1 17 6 17 11 0 6 8 10 18 10 9 0 23 4 31 9 13 8 13 12 0 28 -12 16 -12 17 2 6 8 -7 25 -11 37 -8 12 2 21 -1 19 -7 -1 -6 4 -13 11 -15 9 -3 12 1 10 13 -2 12 4 19 17 21 l20 3 -20 -9 c-14 -7 -15 -10 -5 -10 9 -1 26 6 38 15 12 8 27 12 32 9 6 -3 10 -2 10 4 0 5 -6 12 -12 14 -7 2 0 3 16 1 l29 -4 -27 25 c-32 30 -22 33 14 5 27 -21 40 -25 40 -12 0 5 -10 14 -22 21 l-23 11 24 -6 c13 -3 21 -2 18 2 -3 5 6 9 19 9 30 0 30 -3 2 -14 -12 -4 -17 -11 -11 -14 5 -3 19 2 29 12 11 9 25 16 32 13 13 -4 17 14 5 21 -5 2 -2 2 5 0 20 -5 62 8 62 18 0 14 -28 11 -33 -3 -2 -7 -7 -11 -10 -8 -11 10 8 27 38 33 17 3 24 4 17 1 -6 -3 -10 -10 -7 -14 5 -9 64 17 76 33 3 5 8 8 10 8 9 -2 69 24 69 30 0 4 13 10 30 14 31 7 39 20 18 28 -10 4 -10 6 -1 6 6 1 14 -3 18 -8 6 -11 65 19 65 32 0 5 5 5 10 2 6 -3 10 -1 10 4 0 6 8 11 17 11 15 0 14 2 -3 15 -15 11 -16 14 -3 15 8 0 20 -5 27 -12 6 -6 15 -8 19 -4 4 4 1 11 -7 16 -11 7 -7 9 15 7 24 -2 30 2 30 18 0 12 8 21 20 22 19 3 19 3 1 -5 -11 -5 -15 -11 -10 -14 13 -8 89 36 87 50 -2 6 4 9 15 6 14 -5 14 -3 -2 10 -15 12 -16 16 -5 16 8 0 20 -5 27 -12 9 -10 16 -8 30 6 16 17 16 18 -8 11 -19 -5 -21 -4 -10 4 8 6 23 8 33 5 9 -3 17 -1 17 5 0 6 -5 11 -12 11 -6 0 -9 3 -6 6 4 3 15 1 26 -5 17 -9 22 -8 27 8 4 12 12 18 21 14 7 -3 14 -1 14 5 0 5 -6 12 -14 15 -7 3 -13 18 -13 32 0 17 2 23 7 14 5 -6 6 -17 4 -24 -3 -6 6 -16 20 -23 20 -9 25 -8 30 4 8 21 -3 37 -21 30 -8 -4 -11 -1 -8 5 4 6 14 8 22 5 10 -4 13 -2 10 7 -3 8 1 14 9 14 7 0 11 -4 8 -8 -9 -15 39 -22 50 -7 6 8 16 13 22 11 6 -2 14 3 17 11 4 11 1 13 -11 9 -14 -6 -15 -5 -2 9 10 11 19 13 27 6 8 -7 26 2 60 28 26 20 40 34 31 31 -10 -4 -18 -2 -18 3 0 6 6 10 13 10 8 0 7 4 -3 10 -8 5 -11 10 -6 10 5 0 17 -7 27 -16 10 -9 23 -13 28 -9 15 9 14 25 -1 21 -7 -1 -9 -1 -5 2 4 2 3 10 -4 18 -9 11 -8 14 5 14 10 0 14 -5 11 -10 -13 -21 27 -22 49 -1 12 11 27 21 34 21 21 0 25 23 7 37 -11 7 -13 13 -6 13 7 0 9 5 5 12 -4 7 -3 8 5 4 6 -4 9 -12 6 -17 -9 -14 25 -23 37 -11 8 8 7 16 -3 29 -11 15 -9 14 9 -2 20 -16 25 -17 32 -5 7 10 5 19 -5 26 -18 13 -20 40 -4 50 7 4 9 0 5 -14 -5 -15 -1 -24 14 -32 17 -9 27 -6 60 21 22 18 40 34 40 35 0 10 -59 -20 -64 -32 -3 -8 -11 -14 -18 -14 -10 0 -10 2 1 9 8 5 10 14 6 22 -5 8 -5 11 -1 7 4 -3 22 -1 39 7 18 7 38 10 45 8 14 -5 42 14 42 29 0 5 -4 7 -8 4 -5 -3 -8 5 -7 17 1 17 7 21 25 19 15 -3 20 0 15 9 -5 8 -4 10 3 5 17 -10 3 -36 -16 -29 -14 5 -15 4 -4 -8 11 -12 17 -10 36 12 12 14 27 24 33 22 6 -2 13 3 16 10 4 11 -1 14 -16 11 -22 -4 -22 -4 1 5 12 6 28 8 35 5 7 -2 22 4 32 16 22 24 9 27 -17 3 -10 -9 -18 -11 -18 -6 0 6 -10 13 -22 17 -19 5 -21 8 -8 16 21 14 30 12 30 -5 0 -17 16 -20 25 -4 4 6 14 8 22 5 9 -4 31 7 52 26 21 18 46 38 57 44 10 7 16 15 12 19 -6 6 -21 -6 -74 -57 -12 -11 -28 -18 -35 -15 -11 4 -11 6 -1 6 7 1 10 6 6 13 -4 6 -3 8 3 5 13 -8 36 17 26 27 -4 4 1 4 12 0 15 -6 17 -4 12 11 -6 14 -5 16 7 6 11 -9 15 -8 20 4 4 10 13 14 29 10 25 -7 62 24 62 53 0 8 7 17 15 19 13 4 13 3 0 -6 -8 -5 -11 -13 -7 -17 9 -9 68 46 61 57 -3 5 2 6 11 3 23 -9 68 35 54 52 -13 16 -5 44 13 43 10 0 10 -2 1 -6 -7 -2 -13 -9 -13 -14 0 -11 42 9 52 25 4 6 2 13 -3 17 -7 4 -5 8 4 12 10 4 14 0 12 -11 -2 -9 -4 -20 -4 -25 -1 -4 -12 -12 -26 -19 -13 -6 -22 -15 -19 -20 4 -6 21 5 40 23 24 23 33 39 30 55 -3 17 -1 21 11 17 11 -4 11 -8 3 -13 -9 -6 -9 -9 0 -15 13 -8 20 -3 24 17 6 26 18 48 29 48 5 0 2 -10 -9 -22 -12 -13 -13 -18 -4 -13 8 5 23 20 34 33 10 12 21 21 24 18 9 -9 222 196 215 207 -4 7 0 8 12 4 9 -4 24 -2 31 4 22 18 16 31 -7 19 -11 -7 -23 -9 -26 -7 -5 6 34 20 56 21 8 1 16 7 19 15 3 10 0 11 -9 5 -18 -10 5 19 45 58 44 43 45 33 1 -12 -21 -22 -36 -40 -32 -40 10 0 107 97 107 106 0 4 -9 -1 -19 -11 -19 -16 -20 -16 -18 2 1 16 8 19 33 17 28 -2 48 15 224 191 141 142 191 197 187 210 -4 10 -3 14 4 9 6 -3 31 14 55 39 44 46 56 65 32 51 -9 -5 -9 -2 1 9 11 14 11 20 1 32 -11 14 -7 19 13 16 4 0 7 4 7 11 0 6 3 9 6 5 3 -3 2 -12 -2 -19 -12 -19 -12 -49 0 -45 6 2 11 10 11 18 1 17 24 59 25 43 0 -5 -6 -16 -12 -23 -11 -11 -9 -11 9 -2 17 9 22 19 19 41 -2 17 1 27 6 24 5 -3 7 -12 4 -20 -3 -8 0 -11 10 -7 18 7 18 12 -3 37 -17 20 -17 20 0 7 16 -13 23 -9 72 39 30 30 53 55 51 58 -2 2 18 24 45 49 27 25 49 52 49 60 0 8 -11 2 -26 -16 -14 -17 -31 -31 -37 -31 -6 0 -1 7 11 16 12 8 22 22 22 30 0 13 12 18 33 15 4 -1 18 11 31 26 13 16 43 49 67 76 41 46 41 48 23 68 -16 18 -16 19 -1 13 13 -5 16 -2 10 12 -4 12 -3 15 6 10 7 -5 10 -14 7 -22 -7 -17 6 -18 22 -2 14 14 16 32 4 24 -5 -3 -9 1 -9 9 0 8 4 12 9 9 4 -3 8 0 8 5 0 6 5 11 11 11 8 0 8 -5 -1 -15 -9 -11 -9 -15 -1 -15 6 0 15 10 20 23 5 12 18 31 30 41 11 11 21 23 21 29 0 5 -12 -5 -27 -22 -29 -32 -43 -39 -43 -19 0 6 3 9 6 5 3 -3 17 6 30 20 17 18 22 33 18 47 -6 21 -6 21 9 1 15 -20 16 -20 41 4 15 14 24 32 22 40 -7 21 19 68 28 52 4 -6 3 -11 -2 -11 -6 0 -12 -7 -16 -15 -4 -13 -2 -14 14 -5 11 6 20 17 20 24 0 7 9 21 20 31 12 11 18 25 15 36 -4 12 0 16 12 15 9 0 22 9 28 21 7 13 19 31 28 41 10 10 17 23 17 28 0 5 -4 3 -9 -5 -6 -9 -11 -10 -15 -2 -4 6 4 13 18 17 23 5 68 44 51 44 -4 0 4 10 19 21 15 12 25 27 22 34 -2 8 2 16 11 19 9 4 13 14 10 25 -3 13 0 18 7 15 16 -6 51 32 37 40 -5 4 -13 -3 -16 -15 -4 -11 -9 -18 -12 -16 -9 9 17 46 30 42 16 -6 58 61 50 80 -3 10 -13 14 -27 10 -19 -5 -19 -5 -3 5 9 6 21 9 26 5 5 -3 11 -2 14 2 2 5 2 2 1 -4 -2 -7 1 -13 7 -13 10 0 28 39 24 55 -1 6 0 7 2 3 8 -14 25 -8 20 6 -3 8 1 17 9 20 9 3 14 14 13 23 -3 31 1 43 12 43 8 0 7 -6 -2 -17 -12 -14 -12 -16 1 -11 8 3 15 14 14 26 0 12 3 19 7 17 4 -3 19 11 33 29 14 19 22 37 17 41 -5 3 -13 -4 -16 -16 -4 -11 -9 -19 -11 -16 -2 2 3 21 11 41 10 25 21 36 30 32 16 -6 41 19 26 28 -5 3 -12 1 -14 -4 -3 -6 -4 -5 -3 2 2 7 9 13 17 13 22 1 40 15 33 27 -4 7 -9 7 -13 0 -4 -7 -12 -8 -21 -2 -13 8 -12 10 3 10 9 0 17 8 17 18 0 14 2 15 10 2 8 -13 12 -11 27 10 10 14 17 28 15 33 -1 4 3 7 9 7 6 0 8 9 4 21 -5 13 -3 19 3 15 5 -3 15 1 21 8 12 14 0 30 -24 31 -5 1 -23 7 -40 14 -101 45 -127 55 -139 52 -4 -1 -14 3 -22 10 -8 6 -23 9 -34 6 -11 -3 -18 -1 -14 4 7 12 -13 11 -54 0 -18 -6 -30 -6 -27 -1 3 4 -1 11 -7 13 -7 3 2 3 20 0 22 -4 32 -2 32 7 0 7 -7 10 -15 7 -8 -4 -17 -2 -20 3 -3 4 -24 11 -48 15 -23 4 -46 11 -52 15 -5 4 -30 11 -55 15 -25 4 -49 11 -55 15 -5 4 -19 4 -30 -1 -19 -7 -19 -8 3 -8 19 -1 21 -3 10 -15 -11 -12 -14 -12 -21 0 -5 8 -26 15 -50 16 l-42 1 38 4 c59 7 43 20 -33 28 -38 4 -70 11 -70 15 0 4 -12 8 -27 8 -16 0 -49 4 -75 8 -26 3 -55 3 -65 -1 -10 -5 -24 -7 -30 -6 -7 1 -13 -4 -13 -11 0 -9 -3 -9 -11 2 -8 11 -12 12 -16 3 -2 -7 -9 -13 -14 -13 -6 0 -7 5 -4 10 8 13 -11 13 -35 0 -15 -8 -18 -7 -14 3 4 11 -23 15 -138 20 -79 4 -200 7 -270 7 -83 0 -128 4 -128 11 0 7 58 9 175 8 96 -1 175 -6 175 -10 0 -5 39 -9 88 -9 48 0 103 -4 122 -8 19 -4 51 -5 70 -1 29 5 23 7 -27 8 -35 0 -63 5 -63 10 0 6 -8 10 -17 10 -10 0 -135 2 -278 4 -143 2 -303 3 -355 0z m-21 -33 c-63 -4 -121 -10 -128 -14 -7 -4 -24 -4 -39 0 -23 7 -18 9 33 14 33 4 103 7 155 7 l95 0 -116 -7z m330 -10 c85 0 151 -3 148 -6 -9 -9 -326 -11 -321 -2 2 3 -1 8 -8 11 -7 2 -4 3 7 1 11 -2 89 -4 174 -4z m-564 -12 c4 -3 -17 -9 -44 -13 -29 -4 -48 -11 -45 -17 3 -5 -4 -4 -16 4 -17 9 -24 10 -27 1 -2 -6 -16 -9 -33 -7 -15 3 -31 0 -35 -6 -3 -5 -22 -10 -41 -10 -19 0 -34 -5 -34 -11 0 -6 7 -8 18 -4 13 5 14 3 6 -5 -9 -9 -17 -8 -33 1 -16 11 -23 11 -33 1 -10 -10 -10 -15 2 -22 11 -7 8 -10 -15 -10 -21 0 -26 3 -16 9 8 5 10 14 6 21 -5 9 -4 11 3 6 7 -4 12 -3 12 3 0 5 25 13 55 16 30 4 57 11 60 15 3 5 39 11 80 15 42 4 77 11 80 15 5 8 42 7 50 -2z m882 0 c0 -9 -14 -12 -46 -8 l-46 4 45 7 c25 3 45 7 46 7 0 1 1 -4 1 -10z m-840 -4 c-3 -3 -12 -4 -19 -1 -8 3 -5 6 6 6 11 1 17 -2 13 -5z m1138 -6 c52 -6 92 -15 89 -20 -6 -9 -56 -7 -64 3 -3 4 -43 11 -90 16 -47 6 -72 11 -57 12 16 0 70 -4 122 -11z m-1145 -18 c-20 -13 -33 -13 -25 0 3 6 14 10 23 10 15 0 15 -2 2 -10z m73 3 c-7 -2 -19 -2 -25 0 -7 3 -2 5 12 5 14 0 19 -2 13 -5z m600 0 c-7 -2 -21 -2 -30 0 -10 3 -4 5 12 5 17 0 24 -2 18 -5z m317 -3 c0 -5 -7 -7 -15 -4 -8 4 -15 8 -15 10 0 2 7 4 15 4 8 0 15 -4 15 -10z m-807 -7 c-13 -2 -33 -2 -45 0 -13 2 -3 4 22 4 25 0 35 -2 23 -4z m174 1 c-3 -3 -12 -4 -19 -1 -8 3 -5 6 6 6 11 1 17 -2 13 -5z m696 -1 c-7 -2 -21 -2 -30 0 -10 3 -4 5 12 5 17 0 24 -2 18 -5z m-1456 -41 c-15 -3 -16 -6 -5 -20 11 -15 11 -15 -3 -5 -11 9 -25 10 -47 3 -18 -5 -32 -6 -32 -2 0 3 -5 1 -12 -6 -14 -14 -52 -16 -43 -2 3 5 12 7 20 3 8 -3 15 -1 15 5 0 5 20 13 45 16 24 4 47 11 50 17 4 5 12 6 18 2 8 -5 6 -9 -6 -11z m1823 9 c0 -5 24 -12 54 -15 30 -4 57 -13 59 -20 3 -7 -1 -13 -9 -13 -7 0 -11 4 -8 9 3 4 0 8 -5 8 -6 0 -11 -6 -11 -12 0 -9 -4 -8 -10 2 -5 8 -10 11 -10 5 0 -5 -4 -5 -8 2 -4 7 -25 14 -47 16 -40 4 -63 27 -26 27 12 0 21 -4 21 -9z m-137 -8 c-7 -2 -21 -2 -30 0 -10 3 -4 5 12 5 17 0 24 -2 18 -5z m122 -33 c3 -6 -1 -7 -9 -4 -18 7 -21 14 -7 14 6 0 13 -4 16 -10z m50 0 c-3 -5 -12 -10 -18 -10 -7 0 -6 4 3 10 19 12 23 12 15 0z m-2040 -23 c-11 -6 -22 -12 -25 -12 -3 -1 -24 -7 -48 -14 -24 -7 -49 -10 -55 -8 -7 2 7 7 31 11 23 4 42 12 42 17 0 6 4 8 8 5 4 -2 14 -1 22 5 8 5 22 9 30 9 11 -1 9 -4 -5 -13z m65 -17 c0 -5 -4 -10 -9 -10 -6 0 -13 5 -16 10 -3 6 1 10 9 10 9 0 16 -4 16 -10z m2207 -6 c-3 -3 -12 -4 -19 -1 -8 3 -5 6 6 6 11 1 17 -2 13 -5z m53 -8 c0 -9 -30 -14 -35 -6 -4 6 3 10 14 10 12 0 21 -2 21 -4z m-2463 -23 c3 -9 -8 -10 -35 -4 -2 1 0 6 3 12 8 12 27 7 32 -8z m2511 0 c16 -16 16 -16 -1 -10 -10 4 -25 7 -33 7 -9 0 -12 5 -9 10 9 15 24 12 43 -7z m55 -20 c-7 -2 -19 -2 -25 0 -7 3 -2 5 12 5 14 0 19 -2 13 -5z m-2673 -21 c0 -4 -12 -8 -26 -8 -14 -1 -31 -10 -38 -19 -11 -15 -13 -15 -25 -1 -12 14 -11 16 5 16 11 0 30 6 44 14 24 12 40 12 40 -2z m2739 -9 c3 -2 -12 -2 -31 -1 -20 2 -34 6 -31 11 4 6 52 -1 62 -10z m-92 -50 c-9 -10 -17 -12 -17 -6 0 6 6 14 13 17 10 5 10 7 0 12 -7 3 -13 11 -13 17 0 6 8 4 17 -6 16 -16 16 -18 0 -34z m-2822 -13 c-3 -5 -14 -10 -23 -9 -14 0 -13 2 3 9 27 11 27 11 20 0z m2875 0 c0 -5 -2 -10 -4 -10 -3 0 -8 5 -11 10 -3 6 -1 10 4 10 6 0 11 -4 11 -10z m-2970 -50 c0 -5 -2 -10 -4 -10 -3 0 -8 5 -11 10 -3 6 -1 10 4 10 6 0 11 -4 11 -10z m2846 -29 c19 15 18 2 -1 -17 -8 -9 -15 -13 -15 -11 0 3 -2 11 -3 19 -2 7 -2 9 1 5 2 -4 10 -3 18 4z m-2956 -31 c-24 -15 -36 -11 -14 4 10 8 21 12 24 10 2 -3 -2 -9 -10 -14z m2945 -59 c3 -5 1 -12 -5 -16 -5 -3 -10 1 -10 9 0 18 6 21 15 7z m-3000 -19 c-3 -3 -11 0 -18 7 -9 10 -8 11 6 5 10 -3 15 -9 12 -12z m-75 -2 c-12 -8 -12 -10 -1 -10 8 0 12 -2 9 -5 -3 -3 -13 -2 -22 1 -14 5 -15 9 -4 15 7 5 18 9 23 9 6 0 3 -5 -5 -10z m45 -20 c-3 -5 -12 -10 -18 -10 -7 0 -6 4 3 10 19 12 23 12 15 0z m3030 -10 c3 -5 1 -10 -4 -10 -6 0 -11 5 -11 10 0 6 2 10 4 10 3 0 8 -4 11 -10z m-3168 -28 c-10 -10 -14 -22 -10 -25 3 -4 1 -7 -5 -7 -17 0 -15 16 4 34 22 22 31 20 11 -2z m3108 -37 c3 -47 -13 -32 -18 18 -3 26 -1 35 6 28 5 -5 11 -26 12 -46z m-3090 -3 c-17 -15 -18 -15 -6 0 7 9 9 23 5 30 -6 10 -4 11 7 0 11 -10 10 -15 -6 -30z m-55 8 c0 -5 -5 -10 -11 -10 -5 0 -7 -5 -3 -12 4 -7 3 -8 -4 -4 -6 4 -9 13 -5 21 6 17 23 20 23 5z m-36 -28 c2 -4 -4 -8 -14 -8 -10 0 -16 4 -14 8 3 4 9 8 14 8 5 0 11 -4 14 -8z m19 -27 c-3 -9 -8 -14 -10 -11 -3 3 -2 9 2 15 9 16 15 13 8 -4z m-93 -20 c0 -9 -42 -47 -47 -42 -2 3 4 14 14 25 17 20 33 27 33 17z m67 -21 c-3 -3 -12 -4 -19 -1 -8 3 -5 6 6 6 11 1 17 -2 13 -5z m-53 -39 c-4 -8 -8 -15 -10 -15 -2 0 -4 7 -4 15 0 8 4 15 10 15 5 0 7 -7 4 -15z m-108 -20 c-15 -14 -30 -25 -33 -25 -9 0 41 50 51 50 5 0 -3 -11 -18 -25z m3274 5 c0 -5 -4 -10 -9 -10 -5 0 -13 -9 -16 -20 -3 -11 -10 -20 -15 -20 -5 0 -1 13 8 30 17 30 32 39 32 20z m-3320 -49 c0 -5 -7 -12 -16 -15 -14 -5 -15 -4 -4 9 14 17 20 19 20 6z m-83 -69 c-22 -23 -25 -31 -14 -41 10 -11 9 -13 -7 -7 -10 3 -26 1 -35 -6 -9 -7 4 9 29 35 24 26 46 47 49 47 3 0 -7 -13 -22 -28z m3216 -12 c-3 -11 -7 -20 -9 -20 -2 0 -4 9 -4 20 0 11 4 20 9 20 5 0 7 -9 4 -20z m31 5 c-4 -8 -8 -15 -10 -15 -2 0 -4 7 -4 15 0 8 4 15 10 15 5 0 7 -7 4 -15z m-7 -64 c0 -11 -5 -18 -9 -15 -4 3 -5 11 -1 19 7 21 12 19 10 -4z m24 -4 c-10 -9 -11 -8 -5 6 3 10 9 15 12 12 3 -3 0 -11 -7 -18z m-3353 -17 c-7 -10 -14 -17 -17 -15 -4 4 18 35 25 35 2 0 -1 -9 -8 -20z m3315 -35 c-3 -9 -8 -14 -10 -11 -3 3 -2 9 2 15 9 16 15 13 8 -4z m-3303 -14 c0 -4 -6 -8 -14 -8 -8 0 -12 6 -9 14 5 13 23 9 23 -6z m-50 -1 c0 -5 -5 -10 -11 -10 -5 0 -7 5 -4 10 3 6 8 10 11 10 2 0 4 -4 4 -10z m-39 -43 c-10 -9 -11 -8 -5 6 3 10 9 15 12 12 3 -3 0 -11 -7 -18z m3337 -11 c-7 -8 -15 -12 -17 -11 -5 6 10 25 20 25 5 0 4 -6 -3 -14z m-3368 -16 c-6 -11 -13 -20 -16 -20 -2 0 0 9 6 20 6 11 13 20 16 20 2 0 0 -9 -6 -20z m37 -5 c0 -8 -4 -12 -9 -9 -5 3 -6 10 -3 15 9 13 12 11 12 -6z m3303 -20 c-7 -9 -15 -13 -17 -11 -7 7 7 26 19 26 6 0 6 -6 -2 -15z m-66 -17 c-4 -6 -1 -8 7 -6 8 3 13 12 11 19 -2 8 0 11 4 7 13 -14 13 -56 -1 -62 -10 -3 -12 0 -8 11 5 13 2 15 -15 11 -12 -4 -25 -1 -29 4 -3 7 -1 8 5 4 11 -7 17 6 13 27 -1 5 3 6 9 2 6 -3 7 -11 4 -17z m0 -54 c5 -13 4 -14 -7 -6 -8 7 -18 8 -22 4 -5 -4 -5 -1 -1 6 10 17 23 15 30 -4z m-3349 -37 c16 -13 15 -14 -13 -9 -22 3 -32 0 -32 -9 0 -7 -3 -9 -6 -6 -7 7 14 37 25 37 4 0 15 -6 26 -13z m3291 -53 c-3 -9 -6 -18 -6 -20 0 -2 -8 -4 -17 -4 -17 1 -17 1 0 11 9 6 15 14 12 20 -4 5 -1 9 5 9 7 0 9 -7 6 -16z m-3428 -98 c-7 -8 -15 -12 -17 -11 -5 6 10 25 20 25 5 0 4 -6 -3 -14z m3232 -71 c-7 -9 -15 -13 -19 -10 -3 3 1 10 9 15 21 14 24 12 10 -5z m-3270 -5 c0 -5 -2 -10 -4 -10 -2 0 -12 -3 -22 -7 -16 -6 -17 -5 -4 10 17 19 30 22 30 7z m0 -34 c0 -2 -7 -7 -16 -10 -8 -3 -12 -2 -9 4 6 10 25 14 25 6z m3283 -4 c2 7 7 10 11 6 4 -3 -7 -22 -26 -42 -18 -20 -43 -49 -56 -65 -13 -18 -31 -29 -43 -28 -18 1 -18 3 -5 13 9 6 12 15 8 20 -4 4 1 2 11 -5 9 -7 17 -9 17 -4 0 6 9 20 20 33 11 12 17 26 15 31 -3 4 4 11 15 14 18 6 19 9 8 23 -11 15 -11 15 4 4 13 -10 17 -10 21 0z m-83 -28 c0 -14 -14 -33 -21 -28 -15 9 -10 31 6 31 8 0 15 -1 15 -3z m-3260 -14 c0 -13 -32 -50 -43 -50 -5 0 -1 7 7 16 9 8 16 22 16 30 0 8 5 14 10 14 6 0 10 -4 10 -10z m3188 -105 c0 -14 -4 -27 -8 -30 -3 -2 -5 6 -4 18 1 12 3 25 3 30 2 18 9 5 9 -18z m-3243 -21 c1 -13 -3 -24 -7 -24 -4 0 -8 7 -8 15 0 8 -5 15 -11 15 -8 0 -7 5 1 15 16 19 25 11 25 -21z m2 -66 c-3 -7 -5 -2 -5 12 0 14 2 19 5 13 2 -7 2 -19 0 -25z m3213 8 c0 -3 -4 -8 -10 -11 -5 -3 -10 -1 -10 4 0 6 5 11 10 11 6 0 10 -2 10 -4z m-40 -50 c0 -7 -11 -22 -24 -34 -23 -20 -25 -20 -23 -2 1 11 3 17 6 15 6 -7 31 15 31 27 0 5 -8 7 -18 4 -13 -4 -18 0 -19 14 -2 19 0 19 23 4 13 -9 24 -22 24 -28z m-76 -81 c-4 -8 -11 -12 -16 -9 -6 4 -5 10 3 15 19 12 19 11 13 -6z m-187 -167 c-15 -23 -26 -23 -22 0 4 21 2 19 19 19 11 0 12 -4 3 -19z m18 -18 c-16 -17 -32 -30 -36 -30 -4 0 7 15 24 33 18 19 34 32 36 30 3 -2 -8 -17 -24 -33z m-115 -128 c-33 -34 -60 -58 -60 -53 0 4 9 16 20 26 11 10 17 23 13 29 -3 6 -2 8 2 3 5 -4 17 0 27 9 15 14 16 20 5 33 -10 14 -10 14 4 3 13 -10 19 -9 29 3 7 9 15 14 17 12 2 -2 -24 -32 -57 -65z m-3052 8 c-1 -16 -5 -27 -9 -24 -4 2 -10 -2 -12 -8 -3 -7 -6 -3 -6 10 -1 15 3 21 10 16 8 -5 10 1 7 19 -3 15 -1 24 4 21 4 -3 7 -18 6 -34z m3008 -13 c4 -3 -4 -4 -16 -2 -30 6 -40 16 -12 12 12 -2 24 -6 28 -10z m-44 -81 c-34 -40 -52 -56 -52 -48 0 5 13 21 29 36 18 17 27 35 24 45 -4 14 -3 14 6 1 7 -11 5 -20 -7 -34z m-2962 18 c0 -8 -5 -12 -10 -9 -6 4 -8 11 -5 16 9 14 15 11 15 -7z m2925 -13 c3 -5 2 -12 -3 -15 -5 -3 -9 1 -9 9 0 17 3 19 12 6z m-2980 -50 c3 -5 1 -12 -5 -16 -5 -3 -10 1 -10 9 0 18 6 21 15 7z m2928 -45 c-15 -18 -37 -39 -48 -46 -18 -11 37 55 60 72 20 15 16 7 -12 -26z m-2958 -55 c3 -5 1 -12 -5 -16 -5 -3 -10 1 -10 9 0 18 6 21 15 7z m2824 -14 c8 -10 7 -14 -2 -14 -8 0 -14 6 -14 14 0 7 1 13 2 13 2 0 8 -6 14 -13z m29 -38 c-22 -22 -43 -37 -46 -34 -4 4 1 11 11 16 9 6 14 15 11 21 -4 6 -3 8 3 5 6 -4 18 2 28 13 10 11 22 20 26 20 4 0 -11 -18 -33 -41z m-2882 -50 c-14 -33 -14 -33 -13 -6 1 15 5 27 9 27 4 0 9 12 9 28 1 21 3 22 6 6 2 -12 -3 -37 -11 -55z m18 -67 c2 -17 0 -30 -4 -27 -4 2 -7 18 -8 36 -1 39 7 33 12 -9z m-39 -27 c-4 -25 -9 -44 -12 -41 -2 2 -1 25 2 51 4 25 9 44 12 41 2 -2 1 -25 -2 -51z m2628 -100 c-3 -9 -8 -14 -10 -11 -3 3 -2 9 2 15 9 16 15 13 8 -4z m-2665 -85 c-9 -62 -14 -77 -20 -61 -4 12 -3 30 2 39 5 9 12 39 15 65 4 27 8 47 11 45 2 -3 -1 -42 -8 -88z m2602 54 c0 -8 -19 -13 -24 -6 -3 5 1 9 9 9 8 0 15 -2 15 -3z m24 -9 c-6 -14 -35 -35 -49 -35 -5 0 46 49 52 50 1 0 0 -7 -3 -15z m-133 -82 c-12 -20 -14 -14 -5 12 4 9 9 14 11 11 3 -2 0 -13 -6 -23z m49 13 c-7 -7 -13 -7 -20 0 -6 6 -3 10 10 10 13 0 16 -4 10 -10z m-84 -18 c-12 -7 -21 -7 -28 0 -6 6 0 10 18 10 23 0 24 -2 10 -10z m53 -15 c-18 -23 -31 -33 -44 -33 -5 0 4 11 20 25 36 29 42 31 24 8z m-2513 -99 c-9 -8 -11 -9 -6 -2 14 17 12 25 -5 25 -9 0 -15 -10 -15 -24 0 -12 5 -23 12 -23 7 0 5 -7 -5 -17 -12 -14 -17 -52 -23 -160 -7 -153 -24 -196 -24 -63 0 44 4 80 9 80 4 0 11 48 15 106 4 58 12 114 19 125 11 18 12 17 25 -7 12 -23 12 -28 -2 -40z m2447 49 c-4 -10 -9 -11 -19 -2 -18 15 -18 15 5 15 11 0 17 -5 14 -13z m-53 4 c0 -2 -9 -12 -20 -22 -24 -21 -27 -14 -4 9 15 15 24 20 24 13z m-2407 -137 c3 -11 1 -20 -4 -20 -5 0 -9 9 -9 20 0 11 2 20 4 20 2 0 6 -9 9 -20z m2227 -29 c0 -6 -5 -13 -12 -17 -6 -4 -8 -3 -4 4 3 5 0 13 -6 15 -8 3 -6 6 5 6 9 1 17 -3 17 -8z m33 -13 c-18 -20 -26 -19 -18 4 3 8 12 15 20 15 13 0 12 -4 -2 -19z m-61 -50 c-7 -7 -12 -8 -12 -2 0 6 3 14 7 17 3 4 9 5 12 2 2 -3 -1 -11 -7 -17z m-2185 -130 c-2 -24 -4 -5 -4 42 0 47 2 66 4 43 2 -24 2 -62 0 -85z m2038 102 c3 -5 1 -10 -4 -10 -6 0 -11 5 -11 10 0 6 2 10 4 10 3 0 8 -4 11 -10z m-88 -87 c1 -24 0 -25 -6 -8 -7 17 -6 35 2 35 2 0 3 -12 4 -27z m-2020 -330 c-1 -43 -3 -10 -3 72 0 83 2 118 3 78 2 -40 2 -107 0 -150z m1658 7 c3 -5 1 -10 -4 -10 -6 0 -11 5 -11 10 0 6 2 10 4 10 3 0 8 -4 11 -10z m-185 -60 c8 -5 11 -10 5 -10 -5 0 -17 5 -25 10 -8 5 -10 10 -5 10 6 0 17 -5 25 -10z m98 -2 c-2 -5 -8 -9 -13 -9 -5 0 -11 4 -13 9 -1 5 4 9 13 9 9 0 14 -4 13 -9z m-1548 -157 c0 -52 -4 -93 -11 -96 -7 -5 -9 24 -7 89 2 53 6 96 11 96 4 0 7 -40 7 -89z m47 -33 c-2 -24 -4 -5 -4 42 0 47 2 66 4 43 2 -24 2 -62 0 -85z m1343 118 c0 -3 -4 -8 -10 -11 -5 -3 -10 -1 -10 4 0 6 5 11 10 11 6 0 10 -2 10 -4z m40 -6 c0 -5 -7 -7 -15 -4 -8 4 -15 8 -15 10 0 2 7 4 15 4 8 0 15 -4 15 -10z m-30 -20 c-8 -5 -19 -10 -25 -10 -5 0 -3 5 5 10 8 5 20 10 25 10 6 0 3 -5 -5 -10z m-100 -60 c0 -5 -2 -10 -4 -10 -3 0 -8 5 -11 10 -3 6 -1 10 4 10 6 0 11 -4 11 -10z m-245 -80 c3 -6 -1 -7 -9 -4 -18 7 -21 14 -7 14 6 0 13 -4 16 -10z m49 -2 c-3 -4 -11 -5 -19 -1 -21 7 -19 12 4 10 11 0 18 -5 15 -9z m61 2 c3 -5 1 -10 -4 -10 -6 0 -11 5 -11 10 0 6 2 10 4 10 3 0 8 -4 11 -10z m-1146 -170 c5 0 6 -12 4 -27 -4 -22 -2 -25 6 -13 8 12 10 11 8 -7 0 -12 -5 -19 -9 -17 -4 3 -8 1 -8 -5 0 -6 9 -15 20 -21 11 -6 20 -16 20 -23 0 -8 -3 -7 -9 2 -7 11 -10 10 -14 -5 -4 -17 -5 -16 -6 3 0 12 -5 23 -11 25 -5 2 -11 55 -13 118 -3 63 -2 82 0 43 2 -40 8 -73 12 -73z m1038 134 c-3 -3 -12 -4 -19 -1 -8 3 -5 6 6 6 11 1 17 -2 13 -5z m-1007 -64 c-6 -37 -8 -40 -9 -13 -1 29 8 68 14 61 1 -2 -1 -23 -5 -48z m980 10 c0 -5 -2 -10 -4 -10 -3 0 -8 5 -11 10 -3 6 -1 10 4 10 6 0 11 -4 11 -10z m-25 -10 c3 -5 1 -10 -4 -10 -6 0 -11 5 -11 10 0 6 2 10 4 10 3 0 8 -4 11 -10z m-166 -83 c10 3 8 0 -4 -8 -11 -7 -23 -17 -27 -23 -4 -6 -10 -7 -15 -3 -4 5 -1 12 6 16 8 5 10 14 6 22 -6 11 -5 11 5 2 7 -6 20 -9 29 -6z m-143 -67 c0 -11 -6 -20 -12 -20 -6 0 -17 -7 -24 -15 -7 -8 -17 -15 -23 -15 -5 0 2 11 18 24 15 13 24 29 21 35 -4 6 -1 11 6 11 8 0 14 -9 14 -20z m-65 -23 c-10 -9 -11 -8 -5 6 3 10 9 15 12 12 3 -3 0 -11 -7 -18z m-147 -52 c-4 -8 -8 -15 -10 -15 -2 0 -4 7 -4 15 0 8 4 15 10 15 5 0 7 -7 4 -15z m111 5 c-3 -5 -11 -10 -16 -10 -6 0 -7 5 -4 10 3 6 11 10 16 10 6 0 7 -4 4 -10z m-536 -137 c7 -23 7 -41 1 -47 -5 -5 -8 -2 -8 10 1 10 -2 31 -5 47 -11 41 1 32 12 -10z m84 -26 c3 -8 -1 -14 -8 -14 -7 0 -11 6 -8 14 3 7 6 13 8 13 2 0 5 -6 8 -13z m-66 -49 c-3 -8 -6 -5 -6 6 -1 11 2 17 5 13 3 -3 4 -12 1 -19z" />
        <path d="M6053 7790 c-3 -11 -9 -20 -14 -20 -5 0 -9 -4 -9 -10 0 -19 19 -10 26 13 4 12 12 25 18 29 7 5 7 8 -2 8 -8 0 -16 -9 -19 -20z" />
        <path d="M6071 7773 c-20 -24 -25 -38 -22 -56 1 -5 -3 -6 -9 -2 -6 3 -8 11 -5 16 4 5 2 9 -3 9 -10 0 -22 -24 -22 -43 0 -7 5 -6 11 3 9 13 10 13 6 0 -2 -8 -11 -15 -20 -15 -22 0 -49 -49 -35 -63 6 -6 6 -17 -1 -30 -8 -15 -8 -21 1 -24 8 -3 6 -7 -5 -11 -9 -3 -19 -1 -23 5 -4 7 -3 8 4 4 8 -5 10 -2 6 8 -5 13 -9 12 -25 -8 -10 -13 -19 -29 -19 -35 0 -6 -4 -11 -10 -11 -5 0 -9 -3 -8 -7 1 -5 -3 -18 -10 -30 -15 -27 -1 -63 23 -63 8 0 15 -4 15 -8 0 -10 -59 -7 -68 4 -4 4 1 4 11 1 12 -5 17 -3 15 5 -14 42 -52 -7 -41 -53 4 -19 2 -21 -6 -9 -5 8 -13 11 -17 7 -4 -3 -1 -14 7 -24 9 -11 10 -14 2 -9 -7 4 -20 3 -29 -2 -11 -6 -13 -11 -5 -16 6 -4 11 -1 11 6 0 9 3 9 10 -2 5 -8 10 -19 10 -25 0 -5 -5 -3 -10 5 -8 12 -10 12 -10 -5 0 -17 -2 -17 -10 -5 -8 13 -12 11 -27 -10 -10 -14 -18 -28 -18 -32 0 -3 -3 -10 -7 -14 -11 -10 -10 -24 1 -24 5 0 12 11 15 25 5 18 11 23 24 17 15 -6 15 -7 1 -10 -10 -2 -19 -12 -22 -24 -4 -14 -11 -19 -21 -15 -20 8 -51 -36 -42 -58 3 -9 2 -13 -4 -10 -13 8 -43 -41 -37 -59 4 -10 1 -13 -8 -9 -9 3 -18 -3 -21 -13 -4 -11 -14 -27 -21 -36 -8 -9 -12 -22 -7 -29 4 -8 3 -10 -4 -5 -7 4 -12 1 -12 -8 0 -8 4 -16 9 -18 5 -1 2 -10 -7 -18 -14 -13 -15 -12 -9 4 6 16 5 17 -8 6 -9 -7 -14 -19 -11 -27 3 -8 2 -11 -4 -8 -5 3 -17 -7 -26 -22 -9 -15 -25 -40 -36 -56 -15 -22 -16 -31 -7 -48 8 -16 8 -24 -1 -33 -6 -6 -11 -6 -10 -1 4 21 0 35 -12 35 -6 0 -9 -3 -5 -6 3 -3 2 -11 -4 -18 -5 -6 -25 -33 -45 -59 -31 -41 -34 -50 -22 -64 10 -14 10 -15 0 -9 -17 10 -55 -23 -47 -41 2 -8 1 -12 -4 -9 -5 3 -14 -1 -20 -8 -8 -9 -8 -17 -2 -20 5 -3 11 0 14 6 2 7 4 1 3 -14 0 -14 -4 -24 -8 -21 -5 2 -8 -1 -8 -7 0 -6 -5 -8 -11 -4 -8 4 -7 9 2 15 7 4 10 11 6 15 -4 4 -8 5 -10 3 -1 -2 -12 -19 -25 -37 -16 -23 -20 -37 -14 -49 14 -25 3 -51 -18 -46 -15 4 -16 8 -7 18 7 7 17 10 22 7 6 -2 5 1 -2 8 -16 18 -46 -6 -40 -31 3 -12 0 -16 -9 -12 -8 3 -14 1 -14 -5 0 -6 -17 -32 -39 -59 -28 -36 -38 -57 -36 -80 1 -18 -2 -30 -7 -27 -4 3 -8 0 -8 -6 0 -6 -5 -8 -11 -5 -7 5 -4 14 7 26 13 14 14 18 3 14 -20 -9 -60 -75 -53 -87 4 -7 2 -8 -4 -4 -8 5 -11 -3 -8 -24 3 -24 -2 -35 -24 -50 -16 -11 -32 -20 -37 -20 -4 0 7 10 26 22 19 12 29 24 22 26 -9 3 -9 7 0 18 9 11 9 14 0 14 -6 0 -14 -8 -18 -17 -3 -10 -28 -44 -55 -75 -27 -32 -44 -59 -38 -63 5 -3 10 -2 10 4 0 6 7 7 17 4 11 -4 14 -3 9 5 -8 14 17 55 27 45 11 -11 8 -23 -5 -21 -7 2 -14 -4 -14 -12 -1 -8 -2 -20 -3 -27 0 -7 -8 -10 -16 -7 -8 4 -15 1 -15 -6 0 -9 -3 -10 -14 -1 -11 9 -15 8 -20 -4 -4 -11 -2 -14 6 -9 7 4 8 3 4 -4 -4 -6 -13 -9 -21 -5 -18 6 -20 -8 -2 -26 10 -10 9 -11 -4 -6 -10 4 -29 -10 -57 -44 -23 -27 -42 -54 -42 -59 0 -6 -3 -12 -7 -14 -8 -3 -80 -85 -141 -161 -18 -22 -30 -47 -27 -54 2 -8 1 -12 -4 -9 -4 3 -45 -35 -90 -85 -69 -75 -81 -92 -71 -105 11 -12 10 -13 -3 -8 -15 6 -97 -66 -97 -85 0 -5 -26 -34 -57 -65 -55 -52 -57 -56 -44 -78 13 -21 13 -22 -3 -9 -16 13 -27 5 -117 -85 -62 -62 -97 -104 -94 -114 2 -8 0 -22 -6 -30 -9 -12 -10 -11 -4 5 7 21 -142 -119 -287 -271 -48 -50 -90 -89 -92 -86 -3 2 -78 -65 -166 -149 -89 -85 -175 -162 -191 -172 -16 -11 -29 -23 -29 -28 0 -14 8 -11 30 13 11 12 22 20 24 17 2 -2 -12 -19 -32 -38 -19 -18 -32 -26 -29 -16 5 11 3 15 -5 12 -7 -2 -12 -14 -10 -27 2 -19 0 -21 -13 -10 -12 10 -28 0 -95 -60 -44 -40 -78 -76 -75 -79 2 -4 -6 -7 -18 -7 -16 1 -22 -5 -23 -24 -1 -14 3 -31 8 -37 7 -9 7 -13 0 -13 -6 0 -12 5 -14 11 -2 6 -19 -1 -41 -15 -20 -14 -37 -21 -37 -15 0 5 11 14 25 21 13 6 22 15 19 20 -5 8 -47 -24 -107 -79 -10 -10 -15 -23 -13 -30 4 -10 1 -11 -13 -4 -14 8 -23 6 -36 -9 -9 -10 -14 -23 -11 -28 3 -5 -7 -14 -22 -21 -25 -11 -26 -10 -8 4 11 8 16 15 12 15 -8 0 -51 -32 -89 -65 -11 -10 -16 -23 -13 -32 6 -13 4 -14 -9 -3 -13 11 -19 10 -33 -4 -16 -17 -16 -18 8 -11 19 5 21 4 10 -4 -8 -6 -22 -8 -31 -6 -19 6 -55 -30 -40 -40 6 -3 11 -11 11 -16 0 -6 -7 -3 -16 5 -21 21 -31 20 -44 -4 -6 -11 -15 -20 -20 -20 -17 0 -79 -45 -85 -61 -3 -9 -13 -16 -22 -15 -9 0 -18 -5 -20 -12 -3 -7 1 -10 10 -6 18 7 32 -12 16 -22 -7 -4 -9 -3 -6 3 4 6 -6 10 -23 11 -36 1 -47 -13 -28 -35 12 -15 11 -15 -11 -3 -21 11 -26 10 -37 -5 -7 -9 -17 -14 -22 -11 -5 3 -15 -1 -21 -8 -8 -10 -9 -16 -1 -21 5 -3 10 -11 10 -18 0 -6 -6 -2 -14 8 -12 16 -16 17 -30 6 -9 -7 -14 -16 -11 -20 2 -4 -6 -7 -18 -7 -14 1 -22 -5 -21 -15 1 -9 -7 -15 -20 -15 -15 1 -21 -5 -19 -18 1 -13 -2 -15 -10 -7 -15 15 -24 14 -30 -3 -4 -10 -1 -13 9 -9 7 3 14 0 14 -5 0 -6 -13 -9 -30 -7 -16 2 -30 0 -30 -5 0 -6 6 -10 13 -10 8 0 7 -4 -3 -10 -8 -5 -22 -9 -30 -9 -10 0 -9 3 4 8 12 5 15 10 9 14 -14 9 -37 -19 -28 -33 4 -6 14 -9 24 -5 13 5 13 4 4 -6 -10 -10 -17 -9 -32 5 -11 10 -25 15 -30 11 -18 -10 -12 -25 7 -19 14 5 15 4 2 -5 -8 -6 -23 -8 -32 -5 -10 3 -18 1 -18 -5 0 -6 8 -11 18 -12 11 0 12 -2 4 -6 -7 -3 -19 0 -26 6 -10 8 -17 7 -26 -4 -7 -9 -10 -18 -6 -22 3 -3 6 -1 6 5 0 7 5 12 11 12 8 0 9 -4 0 -13 -6 -8 -7 -18 -3 -23 4 -5 -3 0 -16 10 -12 11 -25 16 -30 11 -4 -4 -1 -10 5 -12 10 -3 9 -9 -3 -20 -8 -8 -18 -12 -22 -9 -3 4 0 11 7 15 9 6 10 11 2 15 -6 4 -16 -2 -22 -13 -7 -10 -19 -17 -26 -14 -7 3 -13 0 -13 -6 0 -6 -7 -11 -15 -11 -7 0 -18 -8 -24 -17 -5 -10 -13 -17 -18 -17 -4 1 -18 -3 -30 -9 -23 -10 -31 -27 -13 -27 6 0 10 4 10 9 0 5 14 14 31 20 40 14 39 14 39 -6 0 -9 -3 -13 -7 -9 -4 3 -12 -3 -19 -15 -7 -14 -14 -18 -18 -10 -4 6 -2 11 3 11 6 0 11 5 11 10 0 16 -13 12 -41 -14 -18 -16 -30 -21 -40 -15 -23 15 -35 9 -15 -6 15 -11 16 -15 5 -15 -8 0 -20 5 -27 12 -6 6 -15 8 -19 4 -4 -4 -1 -11 7 -16 11 -7 7 -9 -14 -7 -18 1 -30 -3 -33 -13 -4 -13 -3 -13 6 0 12 18 23 10 11 -10 -6 -10 -12 -11 -22 -3 -9 7 -20 6 -36 -2 -15 -8 -20 -15 -13 -19 6 -4 11 -16 11 -27 0 -10 5 -19 10 -19 6 0 9 -3 9 -7 -3 -13 25 -73 33 -73 11 0 10 14 -3 27 -7 7 -6 12 3 16 16 5 24 -38 9 -48 -14 -8 44 -115 62 -115 3 0 -2 13 -11 30 -9 16 -20 30 -24 30 -5 0 -8 5 -8 10 0 21 18 9 30 -20 12 -30 30 -41 30 -18 0 6 3 8 6 5 4 -4 -1 -18 -10 -33 -21 -31 -13 -46 10 -18 14 18 15 18 4 -4 -9 -17 -8 -30 2 -52 14 -32 23 -37 31 -17 3 6 4 -1 4 -18 -2 -22 2 -30 14 -29 9 1 15 -7 15 -20 -1 -14 5 -21 17 -20 14 2 15 -1 7 -11 -9 -11 -2 -27 32 -72 24 -32 46 -59 51 -61 4 -2 7 -9 7 -16 0 -7 9 -21 19 -30 18 -17 20 -17 30 1 6 10 11 13 11 8 0 -6 -5 -16 -12 -23 -9 -9 -7 -16 7 -32 17 -19 20 -19 44 -4 l26 15 -22 -20 c-26 -22 -29 -37 -9 -44 19 -7 50 28 40 45 -6 10 -5 10 9 0 16 -14 37 -9 37 8 0 5 -8 7 -17 4 -15 -5 -16 -4 -3 5 8 6 23 8 32 5 9 -3 20 1 25 8 4 8 21 19 36 26 19 8 27 18 23 27 -3 9 0 12 10 8 8 -3 21 0 29 7 16 13 21 35 6 26 -5 -4 -7 3 -4 14 3 11 14 20 25 20 10 0 16 4 13 10 -3 5 0 7 8 4 23 -8 69 43 62 69 -5 19 -4 19 9 -3 15 -24 17 -24 20 0 0 6 4 10 9 10 4 0 9 0 12 0 3 0 1 -9 -5 -21 -7 -11 -17 -19 -23 -17 -7 2 -24 -9 -39 -24 -30 -32 -19 -39 12 -8 11 11 24 20 28 20 18 0 54 49 46 62 -6 10 -5 11 8 1 12 -11 18 -9 33 7 10 11 24 20 31 20 7 0 24 14 37 30 14 17 30 30 35 30 6 0 21 13 34 28 13 16 30 26 37 24 10 -3 12 1 8 12 -4 10 1 24 13 36 11 11 15 20 8 20 -6 0 -9 3 -5 6 3 3 11 3 17 -1 8 -5 4 -15 -12 -32 l-23 -26 23 12 c12 6 22 16 22 21 0 6 6 10 13 10 22 0 60 47 51 62 -6 11 -5 11 8 0 13 -10 21 -6 51 27 19 22 38 37 41 33 9 -8 96 79 96 96 0 8 -18 -6 -41 -32 -22 -25 -47 -46 -55 -46 -8 0 -17 -6 -20 -14 -7 -19 -32 -28 -40 -14 -4 6 -3 8 3 5 16 -10 33 16 28 41 -2 12 0 22 5 22 15 0 21 -18 8 -24 -7 -3 -2 -4 12 -3 17 1 25 8 24 19 -1 10 1 17 5 16 20 -2 31 4 25 14 -4 6 -3 8 2 5 6 -3 16 4 23 15 12 19 11 20 -6 14 -14 -6 -15 -5 -6 5 10 10 17 9 34 -7 21 -18 21 -18 71 34 27 28 53 52 57 52 16 0 50 41 45 54 -3 8 0 17 5 21 6 3 9 11 6 16 -3 5 1 6 10 3 14 -6 14 -8 -1 -25 -31 -35 -2 -20 32 16 18 19 36 35 41 35 13 0 213 204 213 217 0 7 -8 13 -17 14 -12 0 -13 2 -5 6 7 3 20 -1 28 -8 13 -11 37 9 164 136 82 82 147 152 144 157 -3 5 -2 7 3 6 4 -2 66 57 137 129 86 89 126 137 123 148 -4 8 -2 14 2 12 15 -4 142 123 135 135 -5 8 -10 5 -15 -8 -7 -17 -8 -17 -8 4 -1 18 3 22 17 18 14 -5 34 10 76 56 32 35 74 79 93 99 26 27 34 42 29 55 -4 10 -4 15 0 11 8 -8 84 61 84 75 0 5 16 23 36 40 23 20 34 38 31 49 -3 10 5 27 19 40 14 13 22 29 20 36 -3 7 1 10 10 6 13 -5 13 -8 -2 -24 -10 -11 -12 -19 -6 -19 6 0 16 10 23 23 6 12 25 36 41 53 19 20 26 34 19 38 -6 4 -11 0 -11 -8 0 -8 -4 -17 -9 -20 -13 -9 -8 27 7 42 7 8 10 17 8 21 -3 4 4 7 15 7 19 0 19 -1 3 -13 -10 -7 -14 -16 -11 -20 9 -8 57 36 57 52 0 6 13 24 30 40 23 22 27 31 18 42 -8 10 -7 12 4 8 10 -4 29 11 56 47 23 29 51 65 62 81 12 15 19 33 17 40 -4 8 -6 7 -6 -3 -1 -17 -41 -56 -41 -40 0 5 7 13 17 18 9 6 14 16 10 25 -4 12 0 14 17 11 14 -2 30 4 41 16 10 11 14 20 10 20 -4 0 4 11 20 26 15 14 24 28 21 31 -4 4 -13 -3 -22 -15 -8 -12 -21 -22 -27 -22 -7 1 -6 5 4 13 8 7 18 20 22 29 3 10 12 15 20 12 16 -6 53 31 38 40 -5 4 -12 -3 -16 -14 -6 -18 -25 -29 -25 -15 0 13 39 47 48 41 12 -7 44 28 41 46 -4 17 10 58 20 58 4 0 13 12 20 26 7 16 17 24 25 21 15 -6 46 22 46 40 0 6 7 16 15 23 12 10 13 16 4 27 -9 10 -9 12 3 8 16 -6 55 31 45 42 -4 4 -14 -2 -22 -13 -13 -17 -13 -16 -3 13 7 18 15 28 18 22 4 -5 14 -7 23 -3 13 4 14 10 7 24 -7 13 -5 21 5 30 9 8 15 8 15 2 0 -6 -5 -13 -10 -15 -6 -3 -5 -4 2 -3 7 2 13 12 13 24 0 11 5 25 9 29 5 5 6 2 1 -6 -5 -9 -3 -12 5 -9 8 2 18 13 24 24 6 10 24 36 40 58 29 38 29 39 10 53 -19 15 -19 15 1 9 29 -8 52 8 37 27 -10 11 -9 17 3 27 9 7 15 8 15 2 0 -6 -5 -13 -10 -15 -6 -3 -5 -4 2 -3 7 2 13 12 13 24 0 12 7 27 15 34 12 11 12 10 1 -4 -9 -13 -10 -18 -2 -18 6 0 15 8 18 18 4 9 12 21 20 25 17 10 17 27 1 23 -7 -1 -10 -1 -5 1 4 3 4 10 1 15 -4 7 -2 8 5 4 15 -9 43 12 35 26 -4 6 -10 5 -16 -3 -8 -11 -9 -11 -5 1 2 8 12 14 21 12 9 -2 19 5 23 15 3 10 17 33 30 51 13 17 20 32 16 32 -4 0 -3 4 2 8 6 4 20 21 32 39 19 26 21 37 13 58 -5 14 -6 24 -1 21 5 -3 11 1 15 9 3 8 10 15 16 15 6 0 4 -7 -4 -16 -9 -8 -16 -20 -16 -25 0 -12 17 5 46 46 13 18 20 43 18 63 -1 17 2 32 8 32 5 0 6 4 3 10 -3 6 1 7 9 4 14 -5 14 -8 1 -21 -8 -8 -15 -19 -15 -25 0 -16 38 30 46 56 4 11 10 23 13 26 4 3 14 17 24 32 14 23 15 28 3 35 -12 6 -10 13 10 36 13 15 24 24 24 18 0 -5 -7 -16 -15 -25 -18 -17 -19 -26 -5 -26 6 0 14 8 17 18 4 9 11 20 17 24 6 4 5 12 -2 21 -10 12 -9 15 5 13 13 -1 18 7 19 29 2 70 2 71 20 49 15 -19 16 -19 9 1 -3 11 -3 16 1 12 8 -8 34 11 34 25 0 6 -7 5 -15 -2 -10 -9 -15 -9 -15 -1 0 6 5 11 10 11 6 0 10 8 11 18 0 11 2 12 6 4 4 -10 8 -9 18 5 10 14 11 21 2 32 -10 12 -9 14 6 8 12 -4 20 -1 24 11 4 9 11 20 16 23 5 4 5 14 -1 25 -7 14 -4 27 10 49 11 17 17 21 13 10 -4 -11 -8 -27 -10 -35 -1 -8 0 -9 2 -2 3 6 9 12 14 12 6 0 8 4 5 9 -3 5 1 15 10 22 9 7 13 21 10 33 -6 24 9 54 21 42 4 -5 2 -11 -4 -13 -15 -5 -17 -23 -4 -23 5 0 15 17 22 38 6 20 16 40 22 43 5 4 6 13 1 20 -5 9 -11 3 -20 -22 -7 -18 -13 -29 -13 -22 -2 24 19 62 31 58 20 -7 42 11 33 26 -7 10 -10 8 -15 -6 -6 -17 -7 -17 -13 -2 -3 9 -2 17 3 17 6 0 10 5 10 11 0 5 -5 7 -12 3 -7 -5 -8 -3 -3 6 6 10 11 9 21 -5 19 -25 27 -14 14 19 -5 15 -6 25 -1 22 5 -4 12 0 15 6 3 7 3 2 0 -12 -5 -24 -4 -23 15 5 11 17 18 37 16 46 -3 9 -1 27 4 40 5 13 10 18 10 12 1 -21 19 -15 27 10 4 12 12 25 18 29 8 5 8 10 -1 19 -8 8 -13 3 -18 -21 -7 -30 -8 -31 -26 -14 -10 9 -19 22 -19 28 0 6 7 2 15 -8 14 -19 15 -18 24 5 5 13 7 27 4 32 -2 4 1 7 6 7 6 0 11 -4 11 -10 0 -5 3 -10 8 -10 10 1 41 68 34 75 -3 3 -11 -7 -17 -22 l-12 -28 1 32 c1 17 5 29 10 26 5 -4 6 5 2 20 -3 15 -1 29 6 33 7 4 8 3 4 -4 -4 -7 0 -22 8 -34 13 -18 16 -19 16 -5 0 9 5 17 11 17 5 0 7 5 3 11 -4 8 -9 7 -15 -2 -12 -19 -11 -6 1 25 5 14 15 26 22 26 9 0 9 -3 -2 -10 -8 -5 -11 -12 -7 -16 12 -13 22 6 22 44 0 30 3 36 18 34 19 -3 21 2 8 26 -6 12 -4 21 6 31 13 12 14 11 8 -10 -7 -23 -7 -23 8 -4 11 14 12 24 5 33 -8 9 -7 11 5 7 11 -5 17 2 22 24 3 17 4 35 1 40 -8 12 4 41 16 41 6 0 5 -7 -2 -15 -7 -9 -10 -18 -6 -22 9 -9 13 -2 22 31 6 25 4 28 -10 23 -9 -4 -15 -3 -12 2 7 11 -22 36 -31 27 -4 -4 -1 -11 7 -16 13 -9 13 -10 0 -10 -8 0 -22 5 -30 10 -10 6 -11 10 -2 10 21 0 12 14 -25 38 -21 13 -43 20 -54 17 -10 -4 -27 -2 -36 4 -10 6 -12 11 -5 11 6 0 12 5 12 10 0 6 -12 8 -27 4 -17 -3 -23 -2 -16 3 9 6 7 12 -7 21 -16 10 -22 8 -39 -15z m13 -35 c-3 -4 -9 -8 -15 -8 -5 0 -9 4 -9 8 0 5 7 9 15 9 8 0 12 -4 9 -9z m56 -11 c0 -1 -11 -2 -24 -2 -14 0 -22 5 -19 12 4 9 10 10 24 2 10 -5 19 -11 19 -12z m-60 -74 c0 -13 -3 -13 -15 -3 -8 7 -15 16 -15 21 0 5 7 6 15 3 8 -4 15 -13 15 -21z m-39 0 c13 -16 12 -17 -3 -4 -10 7 -18 15 -18 17 0 8 8 3 21 -13z m237 -4 c16 2 22 -3 22 -16 0 -15 -2 -16 -10 -3 -9 13 -10 13 -10 0 0 -13 -2 -13 -9 -1 -7 11 -10 10 -13 -4 -2 -16 -5 -14 -16 9 -10 22 -10 26 0 19 7 -4 23 -6 36 -4z m-284 -15 c3 -8 2 -12 -4 -9 -6 3 -10 10 -10 16 0 14 7 11 14 -7z m313 -66 c-3 -8 -6 -5 -6 6 -1 11 2 17 5 13 3 -3 4 -12 1 -19z m-52 -8 c3 -5 1 -10 -4 -10 -6 0 -11 5 -11 10 0 6 2 10 4 10 3 0 8 -4 11 -10z m-315 -20 c0 -5 -4 -10 -10 -10 -5 0 -10 5 -10 10 0 6 5 10 10 10 6 0 10 -4 10 -10z m-29 -51 c-5 -13 -10 -19 -10 -12 -1 15 10 45 15 40 3 -2 0 -15 -5 -28z m-11 -40 c0 -6 -4 -7 -10 -4 -5 3 -10 11 -10 16 0 6 5 7 10 4 6 -3 10 -11 10 -16z m210 -159 c0 -5 -4 -10 -10 -10 -5 0 -10 5 -10 10 0 6 5 10 10 10 6 0 10 -4 10 -10z m-382 -124 c0 -17 -5 -23 -14 -19 -8 3 -14 7 -14 9 0 4 22 32 26 34 1 0 2 -11 2 -24z m-13 -56 c-3 -5 -1 -10 5 -10 6 0 8 -5 4 -11 -4 -8 -9 -7 -15 2 -7 12 -3 29 7 29 3 0 2 -4 -1 -10z m-40 -20 c3 -5 1 -10 -4 -10 -6 0 -11 5 -11 10 0 6 2 10 4 10 3 0 8 -4 11 -10z m-15 -74 c0 -3 -4 -8 -10 -11 -5 -3 -10 -1 -10 4 0 6 5 11 10 11 6 0 10 -2 10 -4z m307 -31 c0 -8 -4 -15 -9 -15 -10 0 -11 14 -1 23 9 10 10 9 10 -8z m-17 -35 c0 -5 -4 -10 -10 -10 -5 0 -10 5 -10 10 0 6 5 10 10 10 6 0 10 -4 10 -10z m-10 -30 c0 -5 -4 -10 -10 -10 -5 0 -10 5 -10 10 0 6 5 10 10 10 6 0 10 -4 10 -10z m-349 -53 c-6 -6 -14 -7 -18 -2 -5 4 -3 10 4 12 7 2 10 12 7 21 -4 14 -3 13 6 -1 9 -14 9 -22 1 -30z m-36 23 c3 -5 1 -10 -4 -10 -6 0 -11 5 -11 10 0 6 2 10 4 10 3 0 8 -4 11 -10z m-45 -65 c-7 -8 -17 -15 -22 -15 -5 0 -2 7 6 16 9 8 16 21 17 27 0 8 2 8 6 -1 3 -7 -1 -19 -7 -27z m430 15 c0 -5 -2 -10 -4 -10 -3 0 -8 5 -11 10 -3 6 -1 10 4 10 6 0 11 -4 11 -10z m-423 -70 c-1 -21 -10 -18 -13 5 -1 8 2 15 6 15 5 0 8 -9 7 -20z m347 5 c3 -8 1 -15 -4 -15 -6 0 -10 7 -10 15 0 8 2 15 4 15 2 0 6 -7 10 -15z m-415 -41 c-10 -13 -10 -17 2 -26 11 -8 11 -9 -3 -4 -16 5 -23 -4 -19 -26 0 -4 -7 -4 -16 -1 -11 4 -13 8 -5 11 7 2 10 8 6 13 -3 5 -1 9 5 9 5 0 13 9 16 20 3 11 11 20 17 20 6 0 5 -6 -3 -16z m422 -11 c-12 -20 -14 -14 -5 12 4 9 9 14 11 11 3 -2 0 -13 -6 -23z m-431 -67 c0 -11 -19 -15 -25 -6 -3 5 1 10 9 10 9 0 16 -2 16 -4z m-79 -49 c-10 -9 -11 -8 -5 6 3 10 9 15 12 12 3 -3 0 -11 -7 -18z m419 13 c0 -5 -5 -10 -11 -10 -5 0 -7 5 -4 10 3 6 8 10 11 10 2 0 4 -4 4 -10z m-360 -10 c0 -5 -2 -10 -4 -10 -3 0 -8 5 -11 10 -3 6 -1 10 4 10 6 0 11 -4 11 -10z m318 -65 c-3 -3 -9 2 -12 12 -6 14 -5 15 5 6 7 -7 10 -15 7 -18z m-387 -8 c-10 -9 -11 -8 -5 6 3 10 9 15 12 12 3 -3 0 -11 -7 -18z m-64 -56 c0 -25 -2 -27 -14 -15 -12 11 -12 16 -1 28 7 9 13 15 14 16 0 0 1 -13 1 -29z m68 -30 c-3 -6 -11 -11 -16 -11 -5 0 -4 6 3 14 14 16 24 13 13 -3z m329 -55 c-6 -15 -24 -23 -24 -11 0 8 24 34 28 30 1 -1 0 -10 -4 -19z m-430 -10 c-3 -8 -13 -17 -22 -21 -13 -5 -13 -2 3 15 21 24 26 25 19 6z m361 -16 c3 -5 1 -10 -4 -10 -6 0 -11 5 -11 10 0 6 2 10 4 10 3 0 8 -4 11 -10z m-408 -6 c-3 -3 -12 -4 -19 -1 -8 3 -5 6 6 6 11 1 17 -2 13 -5z m443 -14 c0 -11 -2 -20 -4 -20 -2 0 -6 9 -9 20 -3 11 -1 20 4 20 5 0 9 -9 9 -20z m-460 -54 c0 -2 -7 -7 -16 -10 -8 -3 -12 -2 -9 4 6 10 25 14 25 6z m357 -22 c-3 -3 -12 -4 -19 -1 -8 3 -5 6 6 6 11 1 17 -2 13 -5z m38 -26 c11 -2 11 -5 -1 -16 -12 -11 -14 -10 -14 3 0 8 -4 15 -10 15 -5 0 -6 8 -2 18 6 16 7 16 10 0 2 -9 9 -18 17 -20z m-42 -11 c3 -8 -1 -14 -9 -14 -15 0 -18 9 -7 20 9 9 10 9 16 -6z m-467 -43 c-4 -9 -9 -15 -11 -12 -3 3 -3 13 1 22 4 9 9 15 11 12 3 -3 3 -13 -1 -22z m30 -11 c-10 -10 -19 5 -10 18 6 11 8 11 12 0 2 -7 1 -15 -2 -18z m-26 -23 c0 -5 -5 -10 -11 -10 -5 0 -7 5 -4 10 3 6 8 10 11 10 2 0 4 -4 4 -10z m30 -20 c0 -5 -2 -10 -4 -10 -3 0 -8 5 -11 10 -3 6 -1 10 4 10 6 0 11 -4 11 -10z m-33 -16 c-3 -3 -12 -4 -19 -1 -8 3 -5 6 6 6 11 1 17 -2 13 -5z m426 -20 c-2 -7 -12 -15 -20 -18 -13 -5 -14 -4 -4 8 9 11 9 15 -1 19 -7 3 -3 4 8 4 13 -1 20 -6 17 -13z m-480 -29 c-3 -9 -8 -14 -10 -11 -3 3 -2 9 2 15 9 16 15 13 8 -4z m430 -44 c-5 -3 -13 -17 -19 -31 -11 -25 -11 -25 -10 7 1 17 4 29 9 26 4 -2 7 1 7 7 0 6 5 8 11 4 6 -3 7 -9 2 -13z m-593 -109 c0 -5 -7 -17 -15 -28 -14 -18 -14 -17 -4 9 12 27 19 34 19 19z m-47 -69 c-6 -16 -5 -17 13 -3 17 14 18 14 6 -2 -8 -9 -20 -14 -27 -11 -10 3 -13 -1 -10 -16 2 -12 1 -20 -3 -17 -16 9 -66 -49 -67 -78 0 -5 -10 -11 -22 -12 -21 -4 -21 -3 5 27 15 16 40 43 55 59 15 17 25 30 21 30 -4 0 1 9 11 20 22 25 26 25 18 3z m500 2 c-3 -9 -8 -14 -10 -11 -3 3 -2 9 2 15 9 16 15 13 8 -4z m-438 -26 c10 -15 -1 -23 -20 -15 -9 3 -13 10 -10 16 8 13 22 13 30 -1z m375 -43 c0 -3 -4 -8 -10 -11 -5 -3 -10 -1 -10 4 0 6 5 11 10 11 6 0 10 -2 10 -4z m-468 -38 c-6 -6 -15 -8 -19 -4 -4 4 -1 11 7 16 19 12 27 3 12 -12z m451 -3 c-3 -9 -8 -14 -10 -11 -3 3 -2 9 2 15 9 16 15 13 8 -4z m15 -30 c-13 -28 -28 -33 -28 -9 0 8 4 13 9 10 5 -3 11 1 15 9 3 8 8 15 10 15 3 0 0 -11 -6 -25z m-578 -35 c-6 -11 -8 -26 -4 -33 5 -9 4 -9 -5 -1 -10 9 -10 17 -2 33 7 12 14 21 17 21 2 0 0 -9 -6 -20z m543 -15 c-7 -21 -12 -19 -10 4 0 11 5 18 9 15 4 -3 5 -11 1 -19z m-493 -2 c0 -1 -8 -7 -18 -12 -13 -7 -19 -6 -19 2 0 7 9 13 19 13 10 0 18 -1 18 -3z m-90 -33 c-6 -11 -16 -20 -22 -20 -6 0 -3 9 7 20 10 11 20 20 22 20 2 0 -1 -9 -7 -20z m-13 -56 c0 -11 -7 -14 -23 -10 -16 4 -26 1 -33 -13 -6 -10 -7 -21 -4 -25 3 -3 2 -6 -4 -6 -20 0 -21 13 0 36 12 14 27 22 34 20 7 -3 15 -1 18 4 9 14 12 12 12 -6z m-79 -67 c8 -10 6 -13 -7 -13 -11 0 -17 6 -14 13 3 7 6 13 8 13 1 0 7 -6 13 -13z m-46 -39 c-15 -15 -16 -32 -2 -23 18 11 11 -1 -12 -21 -12 -10 -18 -13 -14 -6 4 6 2 12 -3 12 -6 0 -11 -5 -11 -12 0 -6 -3 -8 -6 -5 -7 7 48 76 55 70 3 -2 -1 -9 -7 -15z m566 -22 c-10 -7 -18 -18 -18 -24 0 -6 -4 -13 -9 -16 -5 -4 -7 4 -3 16 5 21 3 20 -22 -7 -26 -29 -27 -29 -11 -3 9 15 14 32 10 38 -3 5 -2 10 4 10 5 0 12 -4 16 -10 10 -16 37 1 30 19 -5 13 -4 14 7 3 11 -11 10 -16 -4 -26z m-643 -67 c-4 -6 1 -16 11 -23 13 -10 14 -15 5 -21 -7 -4 -18 -2 -24 4 -14 14 -30 15 -22 1 3 -5 1 -10 -5 -10 -6 0 -8 -4 -5 -10 3 -6 -1 -7 -9 -4 -10 4 -16 1 -16 -7 0 -7 -3 -9 -7 -5 -4 3 11 24 32 46 39 40 52 50 40 29z m507 -73 c10 6 11 4 0 -7 -10 -11 -15 -10 -30 6 -15 17 -15 18 0 6 9 -7 23 -9 30 -5z m-606 -45 c-20 -21 -24 -30 -14 -35 7 -3 3 -4 -9 -2 -23 4 -38 -17 -26 -36 3 -7 1 -8 -5 -4 -20 12 -14 26 28 67 45 45 68 54 26 10z m46 17 c-15 -15 -16 -32 -2 -23 6 3 10 1 10 -4 0 -13 -3 -13 -24 -5 -12 5 -13 9 -3 25 6 10 16 19 21 19 6 0 5 -5 -2 -12z m32 -14 c3 -8 2 -12 -4 -9 -6 3 -10 10 -10 16 0 14 7 11 14 -7z m534 4 c-2 -6 -12 -12 -21 -14 -9 -1 -15 2 -11 7 3 5 10 7 15 4 5 -4 9 -1 9 4 0 6 3 11 6 11 3 0 4 -5 2 -12z m-100 -68 c-9 -13 -16 -16 -23 -9 -7 7 -5 13 5 19 24 15 31 11 18 -10z m-521 -15 c8 -9 13 -18 11 -21 -3 -2 -13 5 -23 16 -21 23 -11 27 12 5z m-81 -47 c4 -7 3 -8 -5 -4 -6 4 -28 -8 -51 -30 -33 -31 -37 -40 -28 -53 10 -13 10 -14 -1 -4 -10 9 -20 5 -42 -18 -16 -16 -29 -27 -29 -23 0 9 132 144 142 144 4 0 10 -5 14 -12z m-2 -46 c2 -4 -4 -8 -14 -8 -10 0 -16 4 -14 8 3 4 9 8 14 8 5 0 11 -4 14 -8z m-64 -82 c0 -5 -4 -10 -10 -10 -5 0 -10 5 -10 10 0 6 5 10 10 10 6 0 10 -4 10 -10z m-113 -34 c-8 -16 -16 -21 -21 -16 -6 6 -3 15 10 25 10 8 20 15 21 15 0 0 -4 -11 -10 -24z m641 13 c4 11 6 11 13 0 6 -10 9 -11 9 -1 0 6 5 12 12 12 6 0 3 -8 -7 -20 -13 -14 -22 -17 -35 -10 -10 5 -20 6 -24 3 -3 -3 -6 2 -6 12 0 15 2 16 17 4 14 -12 17 -12 21 0z m-611 -18 c0 -11 -5 -18 -9 -15 -4 3 -5 11 -1 19 7 21 12 19 10 -4z m608 -21 c3 -5 1 -10 -4 -10 -6 0 -11 5 -11 10 0 6 2 10 4 10 3 0 8 -4 11 -10z m-22 -35 c-3 -9 -8 -14 -10 -11 -3 3 -2 9 2 15 9 16 15 13 8 -4z m-679 -6 c-3 -6 -2 -14 3 -18 6 -3 7 -15 2 -26 -7 -19 -8 -19 -8 3 -1 20 -3 21 -23 11 -22 -12 -22 -11 2 14 27 28 36 34 24 16z m603 -15 c-9 -9 -28 6 -21 18 4 6 10 6 17 -1 6 -6 8 -13 4 -17z m23 -49 c-13 -14 -28 -25 -33 -25 -6 0 2 11 17 25 16 15 24 30 20 38 -5 9 -4 9 6 0 11 -11 10 -17 -10 -38z m-691 -8 c-13 -13 -26 -21 -29 -19 -5 4 38 42 48 42 3 0 -6 -10 -19 -23z m582 -24 c10 -11 10 -14 2 -9 -7 4 -13 3 -13 -1 0 -5 6 -15 13 -23 10 -12 9 -12 -5 -1 -9 7 -16 21 -15 32 2 23 1 23 18 2z m33 5 c-5 -8 -1 -9 12 -4 14 5 16 4 7 -5 -13 -13 -37 -3 -28 12 4 5 8 9 11 9 3 0 2 -5 -2 -12z m-665 -25 c-8 -9 -22 -25 -32 -35 -10 -10 -15 -23 -12 -28 3 -6 -1 -7 -9 -4 -15 6 -21 -6 -16 -31 1 -5 -4 -5 -11 2 -10 10 -2 23 37 63 48 49 69 66 43 33z m46 -31 c-3 -3 -11 0 -18 7 -9 10 -8 11 6 5 10 -3 15 -9 12 -12z m-153 -85 c-7 -8 -9 -16 -6 -19 3 -3 -2 -5 -12 -4 -9 0 -19 -5 -22 -13 -3 -10 0 -12 11 -8 9 3 19 1 23 -5 4 -7 3 -8 -5 -4 -6 4 -14 0 -17 -9 -5 -12 -9 -13 -21 -3 -12 9 -19 6 -38 -18 -13 -16 -21 -32 -19 -36 3 -5 0 -16 -5 -25 -9 -15 -10 -12 -7 13 2 23 20 50 61 93 33 33 61 59 63 56 3 -2 0 -11 -6 -18z m665 -19 c-3 -8 -6 -5 -6 6 -1 11 2 17 5 13 3 -3 4 -12 1 -19z m-82 -68 c3 -5 1 -10 -4 -10 -6 0 -11 5 -11 10 0 6 2 10 4 10 3 0 8 -4 11 -10z m22 -38 c-20 -21 -37 -42 -37 -47 0 -6 -12 -21 -25 -34 -19 -18 -24 -19 -18 -6 5 14 3 16 -8 10 -8 -5 -11 -5 -6 1 5 5 13 10 18 10 5 1 14 2 20 3 5 0 8 5 4 10 -3 5 0 13 6 16 5 4 8 13 5 21 -3 8 0 11 9 8 7 -3 21 6 32 20 10 14 22 26 28 26 5 0 -8 -17 -28 -38z m-781 -33 c-38 -35 -43 -43 -31 -55 16 -17 39 -19 29 -2 -4 7 -3 8 4 4 7 -4 12 -11 12 -17 0 -15 -32 -10 -53 9 -20 16 -20 16 -13 -3 6 -16 5 -18 -5 -7 -11 10 -4 22 36 62 27 28 53 50 58 50 4 0 -12 -19 -37 -41z m674 -25 c-5 -12 -7 -25 -4 -28 2 -3 1 -4 -3 -1 -12 9 -9 52 3 52 9 0 10 -7 4 -23z m-756 -59 c-4 -9 -16 -21 -28 -27 -19 -10 -19 -9 3 16 28 30 33 32 25 11z m686 -3 c0 -13 -12 -22 -22 -16 -10 6 -1 24 13 24 5 0 9 -4 9 -8z m24 -65 c-22 -22 -45 -47 -51 -55 -7 -7 -13 -9 -13 -3 0 5 5 13 10 16 6 4 7 11 4 17 -4 6 -3 8 3 5 5 -4 23 7 38 23 25 26 26 31 14 46 -13 16 -12 16 10 5 l23 -13 -38 -41z m-740 20 c4 4 4 0 0 -10 -3 -9 -10 -17 -16 -17 -5 0 -6 5 -3 10 9 14 -6 12 -35 -6 l-25 -15 24 5 c13 3 20 1 15 -4 -5 -4 -18 -10 -29 -12 -11 -2 -19 -11 -19 -21 1 -10 -5 -17 -17 -17 -10 0 -21 -4 -24 -10 -3 -5 -10 -10 -15 -10 -5 0 13 21 40 48 74 70 74 71 86 61 6 -5 14 -6 18 -2z m728 1 c-14 -14 -44 -20 -36 -7 3 5 10 7 15 4 5 -4 9 -1 9 4 0 6 5 11 12 11 9 0 9 -3 0 -12z m-97 -58 c-3 -5 -10 -10 -16 -10 -5 0 -9 5 -9 10 0 6 7 10 16 10 8 0 12 -4 9 -10z m-685 -10 c0 -5 -4 -10 -10 -10 -5 0 -10 5 -10 10 0 6 5 10 10 10 6 0 10 -4 10 -10z m694 -66 c-38 -36 -44 -40 -44 -24 0 6 7 10 15 10 14 0 19 11 16 36 -1 6 10 12 24 12 25 0 25 -1 -11 -34z m-68 11 c-33 -17 -46 -19 -46 -5 0 5 6 7 14 4 8 -3 17 -1 21 5 3 6 14 11 23 11 11 0 6 -6 -12 -15z m-690 -34 c0 -11 -5 -17 -13 -14 -10 4 -11 9 -2 19 15 18 15 18 15 -5z m-86 -55 c0 -8 -4 -17 -8 -20 -4 -2 -8 4 -8 15 0 10 4 19 8 19 4 0 8 -6 8 -14z m-76 -18 c-8 -29 -10 -31 -23 -23 -8 4 -8 12 -1 26 15 27 33 24 24 -3z m32 -7 c-13 -15 -14 -20 -4 -24 8 -4 7 -6 -4 -6 -10 -1 -18 2 -18 6 0 8 31 43 38 43 3 0 -3 -9 -12 -19z m797 -3 c-18 -20 -26 -19 -18 4 3 8 12 15 20 15 13 0 12 -4 -2 -19z m-83 -49 c0 -5 -4 -9 -8 -9 -5 0 -9 7 -9 15 0 8 4 12 9 9 4 -3 8 -9 8 -15z m30 -5 c-13 -13 -28 -24 -34 -24 -5 0 -2 6 9 13 10 8 15 18 12 23 -3 6 4 11 15 11 20 2 20 1 -2 -23z m-852 -8 c-2 -18 -6 -22 -14 -15 -9 7 -19 3 -35 -13 -23 -24 -16 -5 9 25 12 13 17 15 24 5 6 -10 8 -8 8 5 0 9 2 17 5 17 3 0 4 -11 3 -24z m758 -94 c-23 -22 -33 -28 -25 -14 8 12 17 22 22 22 4 0 5 5 2 10 -4 6 -11 7 -17 4 -7 -4 -8 -2 -4 5 6 9 11 9 22 0 11 -9 15 -8 20 5 4 9 9 14 12 11 3 -3 -11 -22 -32 -43z m-853 23 c4 -8 3 -16 -1 -19 -4 -3 -9 4 -9 15 -2 23 3 25 10 4z m776 -101 c-72 -76 -100 -103 -97 -94 4 12 119 130 126 130 3 0 -10 -16 -29 -36z m-919 -4 c0 -5 -10 -15 -22 -21 l-23 -12 20 21 c23 24 25 25 25 12z m-5 -69 c2 -12 0 -19 -6 -16 -5 4 -7 11 -4 16 4 5 1 9 -5 9 -6 0 -8 5 -5 11 9 13 15 7 20 -20z m-63 12 c-6 -2 -10 -9 -6 -14 3 -5 0 -9 -5 -9 -12 0 -14 13 -4 23 3 4 11 7 17 6 6 0 5 -3 -2 -6z m28 -22 c0 -5 -7 -12 -16 -15 -14 -5 -15 -4 -4 9 14 17 20 19 20 6z m23 -28 c-7 -2 -19 -2 -25 0 -7 3 -2 5 12 5 14 0 19 -2 13 -5z m831 -2 c3 -5 -1 -11 -9 -15 -8 -3 -17 0 -21 6 -4 7 -3 8 4 4 7 -4 12 -2 12 3 0 13 7 14 14 2z m-54 -6 c0 -7 -30 -13 -34 -7 -3 4 4 9 15 9 10 1 19 0 19 -2z m-923 -20 c0 -8 -9 -23 -20 -32 -13 -11 -17 -12 -12 -4 6 11 4 13 -11 8 -13 -5 -11 0 9 18 33 29 34 30 34 10z m933 -20 c0 -2 -32 -37 -72 -77 -39 -40 -66 -63 -60 -52 6 12 8 25 4 29 -4 5 -1 5 7 0 17 -10 35 16 18 28 -9 6 -8 7 3 6 35 -3 43 0 31 15 -9 11 -8 14 6 12 10 0 17 5 15 13 -2 8 3 11 12 8 8 -3 17 1 20 9 5 13 16 20 16 9z m-1063 -80 c0 -8 -4 -12 -9 -9 -5 3 -6 10 -3 15 9 13 12 11 12 -6z m47 -5 c-6 -6 -15 -5 -24 1 -13 9 -12 10 3 5 9 -3 17 0 17 6 0 6 3 8 7 5 4 -4 2 -12 -3 -17z m-99 -30 c-3 -5 -11 -10 -16 -10 -6 0 -7 5 -4 10 3 6 11 10 16 10 6 0 7 -4 4 -10z m968 -12 c-8 -13 -9 -19 -12 -39 -1 -8 -7 -7 -18 2 -14 12 -16 12 -11 -1 8 -22 -10 -50 -28 -43 -8 3 -14 2 -12 -3 2 -5 0 -10 -4 -11 -17 -6 -9 13 9 22 15 8 19 19 18 40 -2 17 -1 24 2 16 5 -11 7 -11 14 0 6 10 9 11 9 2 0 -7 5 -13 10 -13 6 0 9 3 9 8 -3 18 2 32 12 32 6 0 7 -5 2 -12z m-983 -19 c0 -5 -4 -7 -10 -4 -5 3 -18 1 -27 -4 -10 -6 -13 -11 -7 -11 6 0 11 -6 11 -14 0 -8 -8 -11 -20 -8 -14 4 -16 7 -5 13 7 5 9 9 3 9 -15 1 26 30 42 30 7 0 13 -5 13 -11z m-85 -38 c-3 -6 -11 -11 -16 -11 -5 0 -4 6 3 14 14 16 24 13 13 -3z m122 -3 c-3 -8 -6 -5 -6 6 -1 11 2 17 5 13 3 -3 4 -12 1 -19z m-207 -58 c0 -5 -4 -10 -10 -10 -5 0 -10 5 -10 10 0 6 5 10 10 10 6 0 10 -4 10 -10z m1060 -5 c0 -2 -6 -5 -13 -8 -8 -3 -14 1 -14 8 0 7 6 11 14 8 7 -3 13 -6 13 -8z m-1100 -25 c0 -5 -5 -10 -12 -10 -6 0 -3 -7 8 -16 18 -15 18 -15 -3 -4 -14 6 -20 16 -17 25 7 17 24 20 24 5z m-24 -49 c7 -13 14 -18 17 -12 4 8 5 8 3 0 -1 -7 -10 -13 -20 -15 -11 -2 -16 2 -12 11 3 8 -2 22 -12 31 -13 13 -13 16 -2 12 8 -2 20 -15 26 -27z m1031 0 c-12 -14 -49 -51 -82 -81 -33 -30 -50 -44 -39 -30 12 14 20 30 17 37 -2 6 1 14 6 18 6 3 11 1 11 -6 0 -7 18 5 40 26 22 21 40 44 40 50 0 7 6 12 14 12 11 0 9 -7 -7 -26z m-1163 -96 c-7 -17 -30 -20 -39 -5 -3 5 0 7 8 4 8 -3 18 -1 22 5 9 16 15 13 9 -4z m989 -52 c-6 -16 -5 -16 10 -4 23 18 22 8 -2 -13 -17 -16 -18 -15 -16 6 3 26 3 28 10 28 2 0 1 -8 -2 -17z m-1068 -13 c3 -6 -1 -7 -9 -4 -18 7 -21 14 -7 14 6 0 13 -4 16 -10z m1017 -52 c-7 -7 -12 -8 -12 -2 0 6 3 14 7 17 3 4 9 5 12 2 2 -3 -1 -11 -7 -17z m-1268 -56 c3 -5 -8 -9 -25 -9 -19 0 -25 3 -17 9 17 10 35 10 42 0z m1188 -24 c-9 -9 -15 -9 -24 1 -11 10 -10 11 5 6 10 -5 17 -2 17 6 0 7 3 9 7 6 4 -4 1 -13 -5 -19z m-38 -23 c-4 -8 -8 -15 -10 -15 -2 0 -4 7 -4 15 0 8 4 15 10 15 5 0 7 -7 4 -15z m-44 -47 c-8 -7 -19 -19 -25 -26 -9 -11 -14 -11 -25 5 -9 12 -10 14 -1 7 10 -9 17 -8 32 7 10 10 22 19 26 19 4 0 1 -6 -7 -12z m-116 -34 c3 -8 2 -12 -4 -9 -6 3 -10 10 -10 16 0 14 7 11 14 -7z m-1159 -14 c3 -5 1 -10 -4 -10 -6 0 -11 5 -11 10 0 6 2 10 4 10 3 0 8 -4 11 -10z m-105 -4 c0 -2 -7 -7 -16 -10 -8 -3 -12 -2 -9 4 6 10 25 14 25 6z m0 -26 c0 -5 -5 -10 -11 -10 -5 0 -7 5 -4 10 3 6 8 10 11 10 2 0 4 -4 4 -10z m22 -22 c-16 -16 -15 -31 1 -22 9 5 9 4 0 -6 -7 -8 -15 -11 -19 -8 -9 10 6 48 19 48 8 0 8 -3 -1 -12z m25 -20 c-3 -8 -6 -5 -6 6 -1 11 2 17 5 13 3 -3 4 -12 1 -19z m1077 -46 c2 -4 -5 -9 -17 -9 -17 -2 -19 0 -7 7 18 12 18 12 24 2z m41 -22 c-3 -5 -12 -10 -18 -10 -7 0 -6 4 3 10 19 12 23 12 15 0z m-74 -53 c-11 -12 -21 -16 -21 -10 0 6 7 13 15 17 8 3 15 13 16 23 0 12 2 14 6 4 3 -7 -4 -23 -16 -34z m-993 -12 c-3 -3 -9 2 -12 12 -6 14 -5 15 5 6 7 -7 10 -15 7 -18z m949 19 c-3 -3 -12 -4 -19 -1 -8 3 -5 6 6 6 11 1 17 -2 13 -5z m-67 -88 c0 -8 -7 -16 -15 -20 -12 -4 -13 -2 -2 14 14 24 17 25 17 6z m-36 -34 c2 -4 -4 -8 -14 -8 -10 0 -16 4 -14 8 3 4 9 8 14 8 5 0 11 -4 14 -8z m-64 -26 c0 -3 -4 -8 -10 -11 -5 -3 -10 -1 -10 4 0 6 5 11 10 11 6 0 10 -2 10 -4z m20 -12 c-21 -24 -51 -37 -62 -26 -6 6 -5 12 3 17 8 5 10 4 5 -3 -12 -19 13 -14 32 7 20 23 40 28 22 5z m-690 -34 c0 -13 -1 -13 -10 0 -5 8 -10 22 -10 30 0 13 1 13 10 0 5 -8 10 -22 10 -30z m594 19 c-3 -5 -10 -7 -15 -3 -5 3 -7 10 -3 15 3 5 10 7 15 3 5 -3 7 -10 3 -15z m36 -34 c0 -7 -30 -13 -34 -7 -3 4 4 9 15 9 10 1 19 0 19 -2z m-573 -33 c10 -6 10 -12 -3 -28 -8 -10 -13 -13 -9 -6 4 7 1 19 -5 27 -13 16 -3 20 17 7z m441 -37 c-3 -3 -9 2 -12 12 -6 14 -5 15 5 6 7 -7 10 -15 7 -18z m-438 -57 c0 -5 -6 -3 -14 4 -8 7 -12 15 -10 17 1 2 -3 10 -11 18 -8 8 -15 19 -15 26 0 6 11 -4 25 -23 14 -19 25 -38 25 -42z m25 -6 c3 -34 1 -39 -10 -29 -8 7 -10 18 -5 26 4 8 4 26 -2 40 -7 19 -6 23 2 15 6 -6 13 -30 15 -52z m70 18 c3 -6 -1 -7 -9 -4 -18 7 -21 14 -7 14 6 0 13 -4 16 -10z m-5 -35 c-7 -8 -17 -15 -22 -15 -6 0 -5 7 2 15 7 8 17 15 22 15 6 0 5 -7 -2 -15z m3 -46 c-8 -8 -13 -7 -18 2 -5 8 -4 10 3 5 7 -4 12 -2 12 5 0 7 3 9 7 6 4 -4 2 -12 -4 -18z m189 -21 c-8 -8 -15 -8 -28 3 -16 12 -17 12 -12 -2 7 -19 -8 -47 -19 -35 -4 5 -3 11 4 13 7 2 10 10 7 18 -6 16 12 29 21 15 11 -17 28 -11 20 8 -5 14 -4 15 6 5 10 -10 10 -16 1 -25z m-218 6 c5 -14 4 -15 -9 -4 -17 14 -19 20 -6 20 5 0 12 -7 15 -16z m156 6 c0 -5 -5 -10 -11 -10 -5 0 -7 5 -4 10 3 6 8 10 11 10 2 0 4 -4 4 -10z m-116 -56 c3 -8 2 -12 -4 -9 -6 3 -10 10 -10 16 0 14 7 11 14 -7z m44 -48 c-7 -8 -15 -12 -17 -11 -5 6 10 25 20 25 5 0 4 -6 -3 -14z" />
        <path d="M4407 5349 c7 -7 15 -10 18 -7 3 3 -2 9 -12 12 -14 6 -15 5 -6 -5z" />
        <path d="M6165 7750 c-3 -5 1 -10 9 -10 9 0 16 5 16 10 0 6 -4 10 -9 10 -6 0 -13 -4 -16 -10z" />
        <path d="M5810 7631 c0 -6 5 -13 10 -16 6 -3 10 1 10 9 0 9 -4 16 -10 16 -5 0 -10 -4 -10 -9z" />
        <path d="M5950 7610 c0 -5 5 -10 10 -10 6 0 10 5 10 10 0 6 -4 10 -10 10 -5 0 -10 -4 -10 -10z" />
        <path d="M6435 7580 c-3 -5 1 -20 9 -32 13 -21 13 -25 -5 -47 -14 -18 -19 -19 -19 -7 0 9 4 16 9 16 6 0 9 9 8 20 -1 11 -5 20 -9 20 -4 0 -8 -9 -8 -20 0 -11 -5 -20 -11 -20 -5 0 -7 -5 -4 -10 3 -6 -1 -17 -10 -26 -9 -10 -15 -30 -14 -48 3 -52 -1 -77 -11 -71 -7 4 -7 12 0 25 13 23 13 30 0 30 -5 0 -14 -19 -21 -42 -6 -24 -16 -46 -22 -50 -9 -5 -9 -10 -1 -18 9 -9 13 -4 18 15 4 15 9 25 12 23 2 -3 0 -18 -6 -33 -7 -18 -15 -25 -25 -21 -10 3 -15 -1 -15 -12 0 -10 -5 -23 -12 -30 -9 -9 -7 -13 5 -18 9 -3 14 -11 11 -16 -4 -6 -10 -5 -15 3 -13 21 -21 4 -10 -22 6 -18 5 -30 -5 -44 -13 -18 -14 -17 -10 10 2 17 1 23 -1 15 -3 -8 -10 -18 -17 -22 -8 -5 -7 -11 2 -20 6 -6 12 -17 12 -22 0 -6 -5 -4 -10 4 -16 24 -31 -8 -25 -51 5 -26 2 -39 -10 -49 -8 -7 -20 -32 -26 -56 -6 -24 -16 -41 -21 -38 -5 3 -5 10 0 17 5 7 12 24 16 39 3 15 13 34 22 42 8 9 14 24 11 34 -3 13 -7 10 -18 -13 -7 -16 -18 -33 -24 -37 -5 -4 -6 -8 -1 -8 5 0 3 -7 -4 -15 -6 -8 -13 -34 -15 -57 -2 -24 -4 -46 -4 -50 -1 -5 -6 -8 -13 -8 -9 0 -9 3 0 12 15 15 15 28 1 28 -5 0 -7 -4 -4 -10 3 -5 2 -10 -4 -10 -5 0 -13 -15 -16 -32 -4 -18 -12 -36 -17 -39 -5 -3 -11 -27 -13 -54 -1 -26 -10 -54 -19 -63 -10 -11 -16 -12 -16 -4 0 7 5 12 10 12 6 0 10 5 10 10 0 6 -4 10 -9 10 -15 0 -23 -37 -12 -57 9 -18 -7 -53 -25 -53 -4 0 -3 5 4 12 15 15 16 48 2 48 -6 0 -10 -6 -8 -13 3 -14 -52 -128 -67 -139 -6 -5 -6 -11 2 -19 8 -8 13 -3 18 20 4 17 10 31 15 31 4 0 11 11 14 25 4 14 12 25 18 25 9 0 9 -3 0 -12 -14 -14 -16 -52 -2 -43 6 3 10 -1 10 -11 0 -13 -3 -14 -14 -5 -10 8 -16 8 -24 -1 -6 -7 -11 -16 -11 -21 -1 -14 -20 -42 -21 -29 0 6 -5 12 -11 12 -6 0 -8 -9 -4 -21 5 -14 3 -19 -4 -15 -7 5 -9 -3 -7 -21 2 -15 1 -20 -1 -10 -2 9 -9 17 -14 17 -10 0 -8 -28 4 -47 5 -8 1 -23 -8 -35 l-17 -23 5 30 6 30 -12 -27 c-6 -16 -14 -28 -19 -28 -4 0 -8 -5 -8 -11 0 -6 7 -8 15 -5 14 5 14 2 -1 -23 -11 -18 -23 -27 -32 -24 -12 5 -12 3 0 -16 9 -16 10 -24 2 -29 -6 -4 -15 -17 -19 -30 -4 -13 -9 -21 -12 -18 -3 2 2 19 11 37 19 37 19 39 7 39 -5 0 -12 -12 -16 -27 -3 -15 -11 -31 -17 -34 -7 -4 -6 -14 3 -30 11 -21 11 -23 -4 -11 -13 11 -16 10 -23 -10 -3 -13 -9 -25 -13 -28 -16 -13 -39 -70 -30 -75 5 -4 9 1 9 9 0 8 6 21 13 28 8 7 19 27 25 43 l12 30 -6 -30 c-4 -16 -7 -35 -7 -42 0 -7 -5 -11 -10 -10 -5 1 -14 -11 -20 -28 -10 -30 -37 -64 -37 -48 0 5 5 14 12 21 6 6 9 15 5 19 -12 12 -20 -6 -22 -51 0 -26 -8 -50 -18 -60 -9 -10 -17 -14 -17 -9 0 5 5 14 12 21 9 9 9 12 1 12 -14 0 -27 -36 -18 -50 3 -6 0 -7 -9 -4 -10 4 -18 -1 -23 -12 -3 -11 -11 -22 -16 -25 -5 -4 -6 -12 -2 -19 5 -9 12 -4 20 16 9 24 12 26 18 11 4 -10 3 -16 -2 -13 -5 3 -11 -3 -14 -14 -3 -13 -10 -18 -21 -14 -9 3 -16 2 -16 -4 0 -6 5 -12 12 -14 7 -3 8 -10 4 -17 -6 -10 -10 -10 -16 -2 -4 7 -14 -3 -26 -26 -10 -21 -23 -41 -28 -44 -4 -4 -3 -10 3 -13 6 -4 11 -2 11 5 0 7 2 10 5 7 3 -3 1 -16 -4 -29 -5 -13 -10 -18 -10 -11 -1 6 -6 12 -12 12 -6 0 -8 -7 -5 -16 4 -9 2 -13 -5 -8 -7 4 -9 -1 -5 -17 3 -13 3 -18 0 -11 -6 13 -25 17 -22 5 2 -10 -24 -66 -35 -74 -5 -3 -10 -23 -11 -43 -2 -20 -7 -40 -11 -44 -4 -4 -4 4 0 18 7 23 6 24 -10 9 -10 -10 -18 -34 -19 -58 -1 -22 -6 -44 -10 -48 -4 -4 -5 4 -1 20 10 37 -3 34 -20 -5 -9 -23 -10 -39 -4 -53 10 -20 10 -20 -5 -1 -9 11 -19 17 -22 13 -4 -4 -2 -12 4 -20 8 -9 8 -17 0 -27 -8 -12 -9 -12 -4 3 3 9 1 17 -4 17 -6 0 -10 -7 -10 -15 0 -8 -5 -15 -11 -15 -8 0 -8 -5 1 -15 9 -11 10 -18 1 -28 -6 -8 -9 -17 -6 -21 3 -3 -1 -1 -7 4 -10 9 -10 13 2 21 13 9 13 10 0 6 -11 -3 -15 -18 -14 -63 1 -51 0 -55 -9 -31 -6 15 -15 27 -20 27 -5 0 -6 -7 -3 -16 3 -8 2 -12 -4 -9 -14 8 -38 -36 -38 -68 0 -16 -7 -36 -16 -45 -10 -11 -16 -12 -16 -4 0 7 4 12 9 12 5 0 11 9 14 20 3 11 2 20 -3 20 -12 0 -33 -57 -25 -69 8 -15 -6 -36 -25 -36 -10 0 -15 -11 -15 -35 0 -24 -5 -35 -15 -36 -8 -1 -21 -2 -28 -3 -7 0 -10 -6 -6 -12 4 -8 9 -7 15 2 7 12 9 12 9 1 0 -8 -9 -16 -20 -19 -11 -3 -19 -13 -18 -22 2 -32 -2 -51 -12 -51 -7 0 -7 6 0 19 13 24 13 34 1 26 -19 -11 -41 -68 -35 -90 5 -19 0 -23 -26 -28 -20 -4 -29 -11 -24 -18 4 -8 9 -7 16 2 5 9 6 3 2 -16 -8 -36 -14 -45 -14 -22 0 10 -5 17 -11 17 -6 0 -8 -7 -5 -16 3 -8 2 -13 -3 -10 -5 3 -14 -1 -21 -9 -7 -8 -9 -15 -5 -15 5 0 0 -9 -9 -19 -20 -22 -12 -46 11 -37 8 3 11 1 8 -4 -4 -6 -19 -9 -33 -8 -26 3 -27 1 -26 -45 1 -42 0 -45 -12 -30 -12 17 -15 16 -38 -12 -14 -16 -24 -35 -21 -42 2 -6 -6 -13 -17 -16 -12 -4 -18 -11 -15 -20 3 -7 -4 -19 -14 -26 -11 -6 -17 -17 -13 -23 5 -8 10 -5 15 8 6 16 8 16 8 2 1 -9 -6 -23 -14 -31 -8 -8 -11 -18 -7 -22 4 -5 1 -5 -6 -1 -11 6 -11 11 0 24 11 13 11 14 -2 10 -8 -3 -16 -13 -16 -24 -1 -10 -2 -25 -3 -31 -1 -7 -6 -13 -12 -13 -8 0 -8 5 1 15 7 8 9 15 4 15 -15 -1 -55 -71 -48 -82 4 -6 2 -8 -3 -5 -11 7 -36 -16 -28 -25 3 -3 -1 -11 -10 -18 -8 -7 -15 -18 -15 -24 0 -6 5 -4 10 4 5 8 10 10 10 4 0 -5 -7 -19 -16 -30 -8 -10 -13 -13 -9 -6 3 6 2 12 -4 12 -17 0 -22 -19 -10 -41 7 -14 7 -19 0 -15 -6 4 -9 -4 -6 -25 4 -30 3 -30 -15 -14 -16 15 -22 16 -35 5 -14 -12 -14 -15 0 -30 8 -9 15 -21 15 -26 0 -5 -7 0 -15 11 -15 19 -16 19 -37 -2 -17 -18 -19 -25 -9 -36 9 -12 9 -16 -1 -19 -10 -4 -10 -9 2 -24 14 -18 14 -18 -3 -5 -10 8 -16 20 -13 27 3 8 0 11 -9 7 -11 -4 -12 -10 -4 -24 7 -15 6 -21 -5 -25 -8 -3 -16 -14 -19 -25 -3 -12 -11 -17 -21 -13 -11 4 -19 -2 -25 -18 -5 -13 -16 -30 -25 -37 -9 -7 -16 -19 -16 -26 0 -7 -7 -15 -15 -19 -8 -3 -15 -12 -15 -21 0 -8 -4 -15 -9 -15 -5 0 -18 -15 -30 -32 -34 -54 -45 -69 -72 -100 -60 -68 -61 -69 -50 -82 8 -10 7 -17 -4 -26 -20 -16 -19 -30 3 -46 9 -7 12 -14 5 -14 -6 0 -15 5 -18 10 -4 6 -10 8 -15 5 -5 -3 -12 0 -15 6 -8 12 -55 -27 -55 -46 0 -7 -9 -20 -21 -31 -14 -13 -18 -25 -14 -44 4 -19 3 -21 -4 -10 -9 13 -14 11 -37 -12 -23 -23 -25 -29 -14 -43 11 -13 10 -14 -4 -9 -12 5 -26 -2 -41 -19 -13 -13 -21 -27 -18 -30 3 -3 16 6 28 19 22 23 24 24 22 6 0 -11 -6 -18 -12 -16 -6 3 -17 -7 -23 -21 -6 -14 -17 -25 -23 -25 -6 0 -8 -7 -5 -15 3 -9 -1 -18 -10 -22 -13 -5 -13 -7 -2 -15 10 -7 8 -8 -6 -6 -22 4 -31 -38 -12 -62 9 -13 9 -13 -6 -2 -11 9 -16 24 -13 42 3 28 10 39 47 81 10 10 14 19 9 19 -12 0 -111 -117 -104 -124 3 -3 11 2 18 11 10 14 12 13 9 -8 -1 -13 -3 -26 -3 -29 -1 -2 -6 1 -13 8 -17 17 -29 15 -26 -5 2 -11 -2 -17 -11 -15 -14 3 -40 -25 -41 -43 0 -5 4 -4 9 4 5 7 11 9 14 3 4 -5 -7 -21 -24 -36 -16 -15 -27 -32 -23 -38 4 -6 3 -8 -4 -4 -5 3 -12 0 -15 -6 -2 -7 -8 -10 -13 -5 -4 4 7 21 25 37 18 17 29 30 25 30 -11 0 -64 -52 -64 -62 0 -4 -20 -26 -45 -49 -25 -23 -43 -44 -40 -47 2 -3 -41 -54 -97 -114 -55 -60 -97 -112 -93 -116 4 -4 10 -2 12 5 2 6 26 33 53 61 28 27 47 52 43 55 -3 4 -1 7 5 7 22 0 12 -20 -23 -51 -19 -17 -33 -35 -30 -39 3 -4 -4 -10 -15 -13 -11 -3 -20 -11 -20 -17 0 -9 4 -9 13 -2 8 7 18 7 27 2 12 -8 10 -10 -7 -10 -13 0 -26 0 -30 1 -4 0 -10 -7 -13 -16 -3 -9 -10 -16 -14 -15 -5 1 -13 -4 -18 -12 -8 -10 -9 -10 -5 2 2 8 10 14 16 13 6 -2 11 2 11 7 0 23 -27 6 -87 -55 -57 -58 -62 -67 -51 -85 8 -12 19 -18 28 -15 12 5 13 4 2 -7 -11 -11 -16 -10 -28 7 -14 18 -18 15 -99 -65 -47 -47 -85 -87 -85 -90 0 -3 -126 -132 -280 -285 l-281 -280 23 -18 c12 -10 30 -16 40 -14 10 3 16 2 13 -3 -7 -11 63 -62 75 -55 6 3 10 1 10 -5 0 -7 7 -9 16 -6 8 3 12 2 9 -4 -9 -15 41 -42 65 -35 15 5 22 0 30 -20 9 -23 14 -26 38 -21 19 5 23 4 12 -3 -8 -6 -11 -13 -7 -17 3 -4 12 -2 19 3 20 15 50 24 43 13 -3 -6 -13 -10 -21 -10 -8 0 -14 -5 -14 -10 0 -6 12 -8 28 -5 15 3 21 2 15 -1 -7 -3 -13 -10 -13 -15 0 -6 5 -7 10 -4 6 3 10 2 10 -4 0 -5 13 -12 30 -16 16 -4 30 -11 30 -15 0 -5 6 -7 14 -4 8 3 17 1 21 -5 3 -6 11 -11 17 -11 6 0 5 7 -3 16 -12 15 -11 16 11 9 33 -10 37 -14 22 -24 -13 -8 -7 -11 63 -41 17 -8 35 -14 40 -15 6 0 21 -6 35 -12 43 -20 65 -26 78 -24 6 1 12 -2 12 -8 0 -5 18 -12 40 -16 22 -4 42 -11 45 -15 3 -5 26 -12 50 -16 25 -3 48 -10 51 -15 3 -5 10 -7 15 -3 5 3 15 1 22 -4 7 -6 33 -13 60 -17 26 -4 49 -11 52 -15 3 -5 14 -6 25 -3 11 3 26 1 33 -5 6 -5 42 -13 80 -17 37 -4 67 -11 67 -16 0 -12 87 -11 95 1 4 6 -11 10 -37 11 -24 0 -63 4 -88 8 -36 7 -27 8 46 7 51 -1 90 -4 87 -8 -2 -5 7 -8 21 -8 14 0 26 -4 26 -9 0 -6 -9 -8 -20 -6 -11 2 -21 1 -24 -3 -2 -4 187 -8 420 -10 310 -3 424 0 424 8 0 6 -5 8 -12 4 -7 -5 -8 -3 -3 5 5 9 10 10 18 2 6 -6 40 -12 76 -12 64 -2 63 -2 -29 -11 -52 -5 -256 -7 -453 -5 -197 2 -355 2 -352 -1 2 -3 36 -4 74 -3 40 1 72 -2 76 -8 8 -15 615 -15 615 -1 0 6 19 10 42 10 75 0 268 23 268 31 0 5 17 9 38 9 20 0 55 5 77 11 22 6 52 11 68 11 15 0 27 4 27 8 0 5 25 12 55 15 30 4 55 11 55 15 0 4 27 13 61 19 34 6 66 15 73 20 6 5 28 12 49 16 41 8 50 24 15 26 -22 1 -22 1 2 9 24 7 24 7 -10 18 -26 8 -29 10 -12 11 12 1 31 -5 42 -11 14 -9 23 -10 28 -3 9 13 32 17 32 6 0 -5 -14 -12 -30 -16 -17 -4 -27 -11 -24 -16 4 -6 10 -7 17 0 7 5 29 12 50 16 22 4 36 12 34 19 -3 7 9 12 31 13 19 1 38 7 42 13 4 7 10 11 14 10 3 0 14 4 24 9 12 7 13 10 3 11 -11 0 -11 3 -1 15 7 8 20 15 29 15 14 0 14 -2 1 -10 -8 -5 -11 -12 -7 -16 3 -4 13 -1 21 5 8 7 20 10 26 6 5 -3 10 -2 10 4 0 5 -6 11 -12 14 -7 2 0 2 17 -1 26 -4 28 -3 16 12 -15 18 -1 22 17 4 6 -6 15 -8 19 -4 4 4 1 11 -6 15 -11 7 -9 10 6 15 11 4 28 4 37 0 9 -3 16 -1 16 5 0 6 -5 11 -12 11 -6 0 -8 3 -5 6 4 4 13 1 21 -5 16 -13 36 -7 36 10 0 6 -4 7 -10 4 -6 -3 -7 1 -4 10 9 22 49 37 79 29 29 -7 44 14 22 31 -14 10 -12 12 16 12 26 1 28 -1 12 -7 -11 -5 -15 -9 -8 -9 18 -1 63 21 63 31 0 4 6 8 14 8 17 0 65 39 49 40 -7 0 -13 -5 -13 -11 0 -5 -4 -7 -10 -4 -5 3 -10 1 -10 -4 0 -6 -5 -11 -11 -11 -8 0 -9 4 0 13 6 8 9 16 6 19 -2 2 14 4 38 4 35 -1 42 2 40 18 -1 13 2 15 10 7 12 -12 47 13 47 33 0 6 -5 4 -11 -4 -9 -13 -10 -13 -6 2 4 9 -1 19 -10 22 -9 4 -13 9 -10 13 4 3 13 1 20 -6 22 -17 49 -3 42 23 -6 20 -5 20 6 2 10 -16 9 -22 -7 -33 -10 -7 -14 -13 -8 -13 17 1 46 29 39 39 -3 7 0 8 10 5 8 -4 22 -1 30 6 18 15 20 34 3 24 -7 -5 -8 -3 -4 5 5 7 15 10 23 7 15 -6 106 67 96 77 -2 3 3 4 13 4 9 -1 19 3 21 9 2 7 -6 10 -22 9 -14 -2 -25 -1 -25 1 0 13 40 45 48 40 12 -7 44 22 37 33 -2 5 10 7 27 5 29 -4 41 4 100 63 37 37 68 73 68 79 0 7 7 14 15 18 21 8 19 27 -2 20 -17 -5 -17 -5 0 6 9 6 17 15 17 20 0 5 -8 7 -17 3 -19 -7 -18 -5 11 17 13 10 17 10 12 3 -4 -7 -3 -13 3 -13 13 0 30 32 24 47 -6 16 17 27 29 15 8 -8 1 -22 -25 -48 -20 -21 -34 -40 -32 -42 5 -6 75 66 75 76 0 4 -8 19 -17 32 l-17 25 23 -20 23 -20 49 55 c33 38 48 63 46 79 -1 14 4 26 13 28 13 4 13 3 0 -6 -8 -5 -11 -14 -6 -18 5 -4 11 -2 13 5 3 7 16 26 29 42 14 16 24 35 23 42 -4 29 2 49 11 43 8 -5 7 -12 -2 -23 -11 -13 -11 -14 2 -10 8 3 15 14 14 26 0 12 3 19 7 17 13 -9 27 20 24 49 -4 30 26 73 43 62 5 -3 15 1 21 8 8 10 9 16 1 21 -5 3 -10 1 -10 -6 0 -7 -2 -10 -5 -7 -3 3 -3 13 1 22 5 13 9 14 21 4 12 -10 15 -9 13 7 -1 11 -2 27 -1 35 1 13 2 13 11 0 11 -17 15 -14 25 20 7 22 6 23 -9 11 -11 -9 -16 -10 -16 -2 0 7 -5 9 -12 5 -7 -4 -8 -3 -4 4 4 6 13 9 21 5 21 -8 19 27 -2 42 -15 11 -15 15 -4 29 14 17 36 23 26 7 -3 -5 0 -13 6 -16 6 -4 8 -18 5 -31 -4 -14 -2 -24 4 -24 5 0 9 3 8 8 -1 4 4 17 11 30 7 13 10 30 7 37 -3 9 0 12 8 9 7 -3 18 7 24 21 15 32 16 56 2 35 -12 -18 -12 -2 0 25 7 17 9 17 9 3 1 -21 21 -24 21 -4 0 8 3 23 7 33 6 16 5 16 -10 4 -11 -9 -17 -10 -17 -2 0 6 5 11 10 11 6 0 10 8 11 18 0 10 3 12 6 5 2 -7 9 -13 14 -13 6 0 5 9 -1 21 -7 11 -9 23 -6 27 3 3 6 0 6 -6 0 -7 4 -12 9 -12 18 0 22 38 7 80 -14 41 -12 70 4 70 5 0 15 3 24 6 12 5 16 0 15 -17 0 -20 -2 -21 -7 -6 -6 15 -10 16 -25 5 -12 -9 -16 -20 -11 -32 5 -13 9 -15 15 -5 4 8 12 10 16 5 4 -5 2 -11 -4 -13 -15 -5 -18 -43 -4 -43 5 0 11 13 14 30 4 16 16 50 27 74 11 25 20 52 20 60 0 9 5 16 11 16 6 0 9 7 6 15 -4 8 -2 17 2 20 5 2 12 20 15 39 4 20 13 48 21 63 8 15 15 38 15 51 0 12 4 22 9 22 6 0 6 14 0 35 -5 19 -8 47 -5 62 2 15 5 31 5 36 2 16 21 6 21 -12 0 -11 -4 -23 -10 -26 -13 -8 -13 -45 0 -45 5 0 12 22 16 50 4 27 10 50 14 50 3 0 6 10 5 23 -1 12 2 25 7 28 5 3 10 35 11 71 1 47 5 64 15 61 14 -6 17 53 3 62 -5 3 -8 19 -6 36 3 20 -1 32 -10 36 -8 3 -15 10 -15 16 0 5 9 2 21 -9 11 -10 18 -26 16 -35 -3 -9 0 -23 5 -30 6 -9 8 5 4 41 -6 67 15 330 26 330 11 0 10 -107 -1 -112 -11 -4 -25 -188 -14 -188 5 0 7 16 5 36 -3 24 0 39 9 45 11 6 13 64 12 296 -1 159 1 294 5 300 4 6 6 -69 3 -168 -2 -129 0 -179 8 -179 8 0 11 42 10 143 -1 78 1 157 5 174 4 18 4 38 0 45 -5 7 -7 84 -7 170 1 87 -3 158 -8 158 -4 0 -10 -71 -12 -157 -1 -87 -3 -33 -2 120 0 221 -3 279 -13 286 -9 5 -13 23 -12 47 2 22 0 46 -3 54 -6 18 -19 108 -19 133 1 9 -3 17 -7 17 -5 0 -11 27 -15 60 -4 33 -11 62 -16 65 -5 3 -7 14 -5 25 2 11 0 22 -4 25 -5 2 -12 25 -15 50 -4 24 -11 47 -15 50 -5 2 -12 25 -15 50 -4 24 -11 47 -16 50 -5 3 -7 12 -3 20 3 8 1 15 -5 15 -5 0 -13 17 -17 38 -4 20 -11 42 -16 48 -5 7 -9 16 -8 20 2 10 -5 32 -25 79 -8 17 -19 44 -26 60 -8 17 -12 36 -11 43 3 19 -17 14 -22 -5 -4 -17 -5 -17 -6 0 0 10 -5 16 -10 13 -5 -4 -8 1 -7 11 3 16 -36 98 -55 117 -5 6 -15 3 -25 -10 -14 -17 -15 -17 -10 -1 3 10 6 21 6 23 0 10 39 3 43 -8 2 -7 8 -9 13 -5 5 4 4 11 -2 15 -6 4 -17 24 -23 45 -7 20 -17 37 -22 37 -12 0 -11 -14 2 -27 6 -6 8 -17 4 -23 -5 -8 -13 2 -21 26 -16 47 -18 64 -3 44 9 -12 10 -12 5 3 -3 10 -6 23 -6 28 0 5 -4 9 -10 9 -5 0 -10 -6 -10 -14 0 -33 -15 -21 -16 13 -1 20 1 28 3 18 3 -9 9 -15 14 -12 7 5 -13 49 -31 65 -3 3 -11 16 -18 30 -30 60 -42 75 -59 75 -10 0 -19 9 -20 20 -3 19 -3 19 5 1 5 -11 11 -15 14 -10 8 12 -17 46 -26 37 -4 -4 -4 1 0 12 6 14 4 17 -9 12 -17 -6 -53 39 -49 61 4 17 -28 53 -39 46 -5 -3 -6 1 -4 8 8 20 -19 53 -35 43 -9 -6 -7 -11 10 -20 15 -8 19 -15 11 -19 -6 -4 -11 -2 -11 4 0 6 -4 8 -10 5 -5 -3 -10 -1 -10 5 0 6 -4 9 -9 6 -5 -3 -11 1 -14 9 -4 9 -1 12 7 9 7 -3 17 3 20 13 5 13 -1 26 -23 45 -16 14 -27 28 -25 31 2 2 -20 27 -50 55 -29 28 -51 54 -48 57 3 3 -32 44 -79 91 -57 58 -90 83 -102 80 -9 -2 -15 0 -12 4 9 14 -148 151 -168 146 -9 -2 -14 0 -11 6 3 5 -3 18 -14 29 -12 10 -23 15 -26 10 -3 -5 1 -11 9 -15 14 -5 16 -38 2 -52 -3 -4 -4 6 -1 21 4 22 2 26 -11 21 -9 -3 -14 -2 -11 3 3 5 -1 11 -9 15 -8 3 -15 11 -15 18 0 9 3 8 10 -2 5 -8 10 -10 10 -4 0 13 -40 51 -40 38 0 -5 -5 -1 -11 9 -5 9 -15 17 -20 17 -6 0 -17 7 -25 15 -18 17 -30 19 -39 5z m60 -35 c17 -11 37 -23 45 -27 8 -3 0 -6 -17 -5 -18 1 -33 7 -33 14 0 7 -9 17 -20 23 -11 6 -20 16 -20 23 0 8 3 8 8 2 4 -6 21 -19 37 -30z m-98 -117 c-3 -7 -5 -2 -5 12 0 14 2 19 5 13 2 -7 2 -19 0 -25z m280 -14 c22 -24 23 -44 2 -44 -6 0 -7 4 -4 10 7 12 -19 53 -28 43 -4 -3 -7 -1 -7 5 0 18 11 14 37 -14z m72 -62 c26 -23 28 -28 12 -28 -11 0 -18 4 -15 8 2 4 -6 16 -18 27 -12 12 -19 21 -16 21 4 0 20 -13 37 -28z m-359 -66 c0 -2 -9 -6 -20 -9 -11 -3 -18 -1 -14 4 5 9 34 13 34 5z m461 -23 l24 -26 -27 19 c-15 10 -28 22 -28 27 0 12 5 8 31 -20z m-511 1 c0 -3 -7 -12 -15 -20 -16 -17 -18 -14 -9 10 6 15 24 23 24 10z m53 -11 c3 -5 -6 -8 -19 -8 -13 0 -24 3 -24 8 0 4 9 7 19 7 11 0 22 -3 24 -7z m514 -75 c2 -17 0 -19 -7 -8 -5 8 -6 18 -4 22 8 12 10 10 11 -14z m-597 -43 c-7 -8 -10 -21 -7 -30 4 -8 3 -16 -1 -19 -4 -2 -9 7 -10 22 -1 14 4 29 10 34 19 12 22 10 8 -7z m668 -10 c-3 -3 -9 2 -12 12 -6 14 -5 15 5 6 7 -7 10 -15 7 -18z m20 -35 c3 7 20 -5 43 -29 40 -41 46 -55 30 -65 -5 -4 -7 2 -4 13 3 11 -2 21 -12 25 -13 5 -16 2 -11 -9 3 -10 2 -13 -4 -10 -6 4 -10 12 -9 18 5 38 -21 56 -46 31 -8 -9 -15 -12 -16 -7 0 4 -2 18 -5 31 -4 22 -3 23 13 6 12 -12 18 -13 21 -4z m17 -40 c3 -5 -1 -10 -10 -10 -9 0 -13 5 -10 10 3 6 8 10 10 10 2 0 7 -4 10 -10z m125 -102 c0 -16 -16 -7 -34 19 l-20 27 27 -20 c14 -10 27 -22 27 -26z m-57 22 c7 0 4 -5 -6 -11 -18 -11 -37 -5 -37 13 0 5 7 7 16 4 9 -3 21 -6 27 -6z m-853 -51 c0 -5 -4 -9 -8 -9 -5 0 -9 7 -9 15 0 8 4 12 9 9 4 -3 8 -9 8 -15z m7 -51 c-3 -8 -6 -5 -6 6 -1 11 2 17 5 13 3 -3 4 -12 1 -19z m907 6 c20 -8 11 -24 -12 -23 -12 0 -13 2 -3 6 11 5 11 7 0 14 -16 10 -8 12 15 3z m-953 -21 c13 -16 12 -17 -3 -4 -10 7 -18 15 -18 17 0 8 8 3 21 -13z m1025 -4 c3 -6 1 -15 -5 -20 -6 -5 -9 -6 -6 -3 3 4 0 13 -6 21 -8 9 -8 13 -1 13 6 0 14 -5 18 -11z m-1063 -37 c7 -9 6 -11 -7 -6 -16 6 -24 -20 -8 -29 4 -2 1 -2 -5 -1 -7 2 -13 -1 -13 -6 0 -6 -4 -10 -9 -10 -6 0 -3 12 5 28 7 15 14 36 15 47 0 14 2 16 6 5 3 -8 10 -21 16 -28z m1064 -19 c-4 -3 1 -12 11 -20 13 -10 14 -13 2 -11 -25 5 -36 38 -13 38 4 0 3 -3 0 -7z m83 -125 c0 -19 -2 -20 -10 -8 -13 19 -13 30 0 30 6 0 10 -10 10 -22z m46 -23 c7 -5 10 -13 7 -17 -2 -5 1 -8 6 -8 6 0 11 -6 11 -14 0 -8 8 -23 18 -32 15 -16 15 -17 0 -12 -9 4 -19 2 -22 -5 -3 -7 -3 -2 -1 9 3 13 -1 28 -10 37 -8 9 -15 19 -15 23 0 4 -8 13 -17 21 -13 10 -14 13 -3 11 8 -2 20 -7 26 -13z m-1269 -37 c-3 -8 -6 -5 -6 6 -1 11 2 17 5 13 3 -3 4 -12 1 -19z m1243 5 c0 -10 -4 -14 -8 -8 -4 6 -11 13 -16 18 -5 4 -2 7 7 7 10 0 17 -8 17 -17z m-1243 -85 c-3 -8 -6 -5 -6 6 -1 11 2 17 5 13 3 -3 4 -12 1 -19z m1300 -60 c-3 -7 -5 -2 -5 12 0 14 2 19 5 13 2 -7 2 -19 0 -25z m-1402 -48 c3 -5 1 -10 -4 -10 -6 0 -11 5 -11 10 0 6 2 10 4 10 3 0 8 -4 11 -10z m1515 -100 c0 -5 -9 -8 -19 -7 -10 0 -17 7 -14 13 5 13 33 8 33 -6z m-1571 -82 c0 -13 -3 -17 -6 -10 -2 6 -9 10 -14 7 -5 -4 -6 1 -3 9 9 24 24 19 23 -6z m1656 -48 c-3 -5 -1 -10 4 -10 6 0 11 -9 11 -19 0 -14 -7 -18 -24 -17 -14 0 -22 6 -19 14 4 9 9 10 19 1 9 -8 14 -8 14 -1 0 6 -4 14 -10 17 -13 8 -13 25 1 25 5 0 7 -4 4 -10z m-1748 -82 c-3 -8 -6 -5 -6 6 -1 11 2 17 5 13 3 -3 4 -12 1 -19z m1809 -113 c-2 -5 -7 7 -11 28 -4 20 -11 40 -16 43 -5 3 -6 11 -2 17 8 13 36 -71 29 -88z m-1812 59 c3 -8 2 -12 -4 -9 -6 3 -10 10 -10 16 0 14 7 11 14 -7z m1788 -86 c-7 -7 -12 -8 -12 -2 0 14 12 26 19 19 2 -3 -1 -11 -7 -17z m54 -56 c-3 -3 -6 2 -6 12 0 9 -4 14 -10 11 -11 -7 -14 28 -3 39 4 4 11 -7 16 -24 4 -18 6 -35 3 -38z m-1912 32 c3 -8 2 -12 -4 -9 -6 3 -10 10 -10 16 0 14 7 11 14 -7z m1891 -54 c3 -6 -4 -10 -17 -10 -18 0 -20 2 -8 10 19 12 18 12 25 0z m58 -80 c4 -27 3 -37 -2 -25 -4 11 -11 40 -14 65 -4 27 -3 37 2 25 4 -11 11 -40 14 -65z m-2088 -59 c-6 -21 -25 -29 -25 -11 0 6 5 10 10 10 6 0 10 8 10 17 0 9 3 14 6 10 3 -3 3 -15 -1 -26z m35 14 c-7 -9 -15 -13 -19 -10 -3 3 1 10 9 15 21 14 24 12 10 -5z m2047 -30 c0 -8 -4 -12 -9 -9 -5 3 -6 10 -3 15 9 13 12 11 12 -6z m31 3 c1 -7 3 -26 5 -43 3 -16 2 -20 0 -7 -2 12 -8 22 -12 22 -4 0 -7 9 -8 20 -2 21 13 28 15 8z m-26 -46 c-7 -5 -10 -16 -6 -25 3 -9 2 -17 -4 -17 -5 0 -8 10 -7 23 3 28 3 27 18 27 9 0 9 -2 -1 -8z m-2192 -137 c-7 -20 -14 -35 -16 -33 -2 2 2 21 8 41 6 20 13 35 16 33 2 -3 -1 -21 -8 -41z m2283 -102 c5 -8 4 -13 -2 -13 -6 0 -11 5 -11 11 0 5 -3 8 -7 6 -5 -3 -9 29 -9 71 l-2 77 12 -70 c6 -38 15 -76 19 -82z m-2288 37 c3 -5 1 -10 -4 -10 -6 0 -11 5 -11 10 0 6 2 10 4 10 3 0 8 -4 11 -10z m2288 -75 c3 -6 -1 -21 -8 -34 -10 -20 -13 -21 -18 -7 -4 10 -3 15 2 12 5 -3 12 1 15 10 4 11 2 15 -7 11 -8 -3 -14 0 -14 7 0 16 25 17 30 1z m-2356 -47 c-3 -8 -6 -5 -6 6 -1 11 2 17 5 13 3 -3 4 -12 1 -19z m2382 -152 c2 -75 -9 -48 -13 33 -3 56 -8 75 -22 87 -18 14 -18 14 0 7 15 -5 18 -3 13 9 -3 9 -3 19 1 23 8 7 19 -81 21 -159z m-48 63 c-9 -23 -9 -22 -8 8 1 18 6 28 10 24 4 -4 3 -18 -2 -32z m-2411 -63 c0 -3 -4 -8 -10 -11 -5 -3 -10 -1 -10 4 0 6 5 11 10 11 6 0 10 -2 10 -4z m-77 -64 c-3 -12 -9 -19 -14 -16 -5 3 -3 14 3 24 15 24 19 21 11 -8z m2557 -42 c0 -33 -4 -60 -10 -60 -11 0 -14 103 -3 113 12 12 13 8 13 -53z m-2570 -59 c0 -17 -18 -21 -24 -6 -3 9 0 15 9 15 8 0 15 -4 15 -9z m-5 -41 c3 -5 2 -10 -4 -10 -5 0 -13 5 -16 10 -3 6 -2 10 4 10 5 0 13 -4 16 -10z m-155 -180 c0 -13 -12 -19 -26 -13 -21 8 -17 19 6 19 11 0 20 -3 20 -6z m10 -49 c0 -17 -21 -24 -33 -12 -9 9 -7 10 7 5 13 -5 17 -4 12 4 -4 7 -2 12 3 12 6 0 11 -4 11 -9z m-85 -92 c11 -16 1 -19 -13 -3 -7 8 -8 14 -3 14 5 0 13 -5 16 -11z m-85 -85 c0 -8 -4 -12 -10 -9 -5 3 -10 10 -10 16 0 5 5 9 10 9 6 0 10 -7 10 -16z m-40 -58 c0 -2 -7 -9 -15 -16 -13 -11 -14 -10 -9 4 5 14 24 23 24 12z m-30 -46 c0 -5 -2 -10 -4 -10 -3 0 -8 5 -11 10 -3 6 -1 10 4 10 6 0 11 -4 11 -10z m-10 -100 c6 -11 8 -20 6 -20 -3 0 -10 9 -16 20 -6 11 -8 20 -6 20 3 0 10 -9 16 -20z m-70 -64 c0 -2 -8 -10 -17 -17 -16 -13 -17 -12 -4 4 13 16 21 21 21 13z m-59 -43 c-12 -20 -14 -14 -5 12 4 9 9 14 11 11 3 -2 0 -13 -6 -23z m3046 -115 c-3 -7 -5 -2 -5 12 0 14 2 19 5 13 2 -7 2 -19 0 -25z m-3072 -28 c-3 -5 -12 -10 -18 -10 -7 0 -6 4 3 10 19 12 23 12 15 0z m3072 -12 c-3 -8 -6 -5 -6 6 -1 11 2 17 5 13 3 -3 4 -12 1 -19z m-7 -22 c0 -3 -4 -8 -10 -11 -5 -3 -10 -1 -10 4 0 6 5 11 10 11 6 0 10 -2 10 -4z m10 -66 c0 -4 -7 -11 -16 -14 -13 -5 -14 -4 -6 7 7 8 8 18 4 22 -4 5 -1 5 6 1 6 -4 12 -11 12 -16z m-3227 -15 c-3 -9 -8 -14 -10 -11 -3 3 -2 9 2 15 9 16 15 13 8 -4z m-9 -120 c3 -8 1 -15 -4 -15 -6 0 -10 7 -10 15 0 8 2 15 4 15 2 0 6 -7 10 -15z m3223 -27 c-3 -7 -5 -2 -5 12 0 14 2 19 5 13 2 -7 2 -19 0 -25z m-3330 -27 c0 -11 -6 -17 -14 -14 -7 3 -13 -1 -13 -8 0 -7 -3 -9 -7 -6 -3 4 2 16 13 26 24 25 23 25 21 2z m26 4 c-3 -9 -8 -14 -10 -11 -3 3 -2 9 2 15 9 16 15 13 8 -4z m3297 -45 c0 -16 -4 -30 -8 -30 -5 0 -7 14 -4 30 2 17 6 30 8 30 2 0 4 -13 4 -30z m-3293 5 c0 -8 -4 -12 -9 -9 -5 3 -6 10 -3 15 9 13 12 11 12 -6z m-73 -20 c-7 -16 -24 -21 -24 -6 0 8 7 13 27 20 1 1 0 -6 -3 -14z m36 11 c0 -3 -4 -8 -10 -11 -5 -3 -10 -1 -10 4 0 6 5 11 10 11 6 0 10 -2 10 -4z m3301 -93 l-9 -48 2 62 c0 35 4 56 9 48 4 -8 3 -36 -2 -62z m-3343 36 c3 -12 2 -12 -7 1 -8 12 -14 10 -37 -15 -27 -31 -23 -14 4 18 17 20 34 18 40 -4z m-81 -64 c0 -8 -4 -15 -9 -15 -10 0 -11 14 -1 23 9 10 10 9 10 -8z m1 -52 c1 -24 0 -25 -9 -10 -5 9 -7 22 -4 27 9 15 10 13 13 -17z m-32 -5 c4 -7 3 -8 -4 -4 -7 4 -12 3 -12 -2 0 -5 -11 -21 -25 -36 -33 -36 -32 -20 2 22 31 37 29 36 39 20z m32 -60 c-3 -7 -13 -15 -24 -17 -16 -3 -17 -1 -5 13 16 19 34 21 29 4z m3379 -40 c-3 -7 -5 -2 -5 12 0 14 2 19 5 13 2 -7 2 -19 0 -25z m-3543 -63 c-4 -8 -10 -15 -14 -15 -5 0 -12 -9 -15 -20 -3 -11 -16 -25 -28 -31 -21 -11 -21 -11 -4 7 9 11 27 31 38 47 23 30 31 35 23 12z m3516 -9 c0 -8 -4 -18 -10 -21 -5 -3 -7 0 -4 9 4 11 0 13 -18 10 -21 -4 -21 -4 -3 5 28 14 35 13 35 -3z m-37 -33 c-7 -2 -19 -2 -25 0 -7 3 -2 5 12 5 14 0 19 -2 13 -5z m-3481 -25 c-7 -7 -12 -8 -12 -2 0 6 3 14 7 17 3 4 9 5 12 2 2 -3 -1 -11 -7 -17z m3505 0 c-3 -8 -6 -5 -6 6 -1 11 2 17 5 13 3 -3 4 -12 1 -19z m-39 -2 c-7 -8 -15 -12 -17 -11 -5 6 10 25 20 25 5 0 4 -6 -3 -14z m32 -30 c0 -3 -4 -8 -10 -11 -5 -3 -10 -1 -10 4 0 6 5 11 10 11 6 0 10 -2 10 -4z m-3602 -35 c-8 -12 -17 -18 -21 -15 -5 6 25 43 32 38 1 -1 -3 -12 -11 -23z m3572 -35 c-6 -20 -16 -39 -22 -42 -5 -4 -5 3 2 16 10 18 9 24 -1 31 -11 7 -10 9 4 9 9 0 17 8 17 17 0 9 3 14 6 10 3 -3 1 -22 -6 -41z m-42 -26 c-7 -10 -14 -18 -15 -16 -6 6 9 36 18 36 5 0 4 -9 -3 -20z m-3586 -82 c-7 -7 -12 -8 -12 -2 0 6 3 14 7 17 3 4 9 5 12 2 2 -3 -1 -11 -7 -17z m3558 -78 c0 -5 -2 -10 -4 -10 -3 0 -8 5 -11 10 -3 6 -1 10 4 10 6 0 11 -4 11 -10z m-70 -44 c0 -3 -4 -8 -10 -11 -5 -3 -10 -1 -10 4 0 6 5 11 10 11 6 0 10 -2 10 -4z m-3650 -26 c8 -5 12 -11 10 -14 -3 -2 -14 2 -24 10 -22 15 -10 19 14 4z m3634 -19 c3 -5 -1 -11 -9 -14 -9 -4 -12 -1 -8 9 6 16 10 17 17 5z m-3750 -106 c-4 -8 -1 -15 5 -15 8 0 8 -4 -1 -14 -10 -11 -16 -11 -27 -2 -12 9 -14 8 -8 -6 3 -10 1 -20 -5 -24 -7 -4 -8 -3 -4 4 4 7 3 12 -3 12 -15 0 -33 -38 -25 -53 4 -6 3 -9 -1 -4 -5 4 -17 -1 -27 -10 -18 -16 -18 -16 -12 0 3 9 10 17 14 17 5 0 11 8 14 18 6 16 72 92 81 92 3 0 2 -7 -1 -15z m46 11 c0 -3 -4 -8 -10 -11 -5 -3 -10 -1 -10 4 0 6 5 11 10 11 6 0 10 -2 10 -4z m-113 -144 c-10 -10 -14 -22 -10 -27 5 -4 -2 -3 -13 3 -17 9 -24 8 -33 -2 -9 -11 -9 -15 1 -19 8 -3 8 -6 2 -6 -6 -1 -17 6 -24 15 -11 12 -10 18 4 32 16 16 17 16 10 -3 -5 -16 -4 -18 6 -8 7 6 18 9 25 7 6 -3 18 2 25 11 7 8 15 15 18 15 3 0 -2 -8 -11 -18z m3646 -47 c-3 -9 -8 -14 -10 -11 -3 3 -2 9 2 15 9 16 15 13 8 -4z m-3901 -177 c-19 -19 -14 -33 6 -15 12 11 22 13 32 7 10 -7 11 -10 3 -10 -7 0 -13 -8 -14 -17 0 -16 -1 -16 -8 1 -5 13 -10 16 -15 8 -3 -6 -14 -8 -23 -5 -12 5 -14 3 -8 -7 6 -9 4 -11 -5 -5 -10 6 -12 4 -7 -9 4 -9 3 -15 -2 -11 -5 3 -17 -2 -25 -11 -9 -8 -16 -12 -16 -9 0 8 82 95 89 95 3 0 0 -5 -7 -12z m3828 -36 c0 -17 -38 -40 -51 -31 -11 7 -10 9 4 9 10 0 20 7 23 15 6 16 24 21 24 7z m-70 -36 c0 -2 -7 -6 -15 -10 -8 -3 -15 -1 -15 4 0 6 7 10 15 10 8 0 15 -2 15 -4z m-3869 -55 c-6 -10 -7 -21 -3 -25 3 -4 -1 -4 -10 -1 -10 4 -18 -1 -22 -12 -4 -10 -8 -20 -9 -22 -1 -2 6 -5 16 -7 11 -1 22 -5 25 -8 8 -9 -30 -2 -46 8 -9 5 -19 1 -28 -13 -8 -12 -20 -21 -25 -21 -9 0 99 118 109 119 1 1 -2 -7 -7 -18z m3812 -8 c-7 -2 -13 -9 -13 -14 0 -6 5 -7 10 -4 6 3 10 1 10 -6 0 -7 9 -3 20 9 30 32 35 27 8 -7 -19 -24 -25 -27 -37 -15 -12 11 -16 11 -26 -3 -10 -13 -14 -13 -20 -3 -5 8 -4 11 2 7 6 -4 15 5 21 18 7 14 17 25 24 24 10 0 10 -2 1 -6z m0 -60 c3 -5 -5 -17 -16 -28 l-20 -20 11 21 c6 12 8 24 5 28 -3 3 -1 6 5 6 6 0 13 -3 15 -7z m-3934 -74 c-26 -19 -35 -18 -26 5 4 10 13 13 23 9 13 -5 15 -3 9 7 -6 9 -4 11 5 5 10 -6 7 -12 -11 -26z m-49 -43 c0 -2 -8 -10 -17 -17 -16 -13 -17 -12 -4 4 13 16 21 21 21 13z m-2 -40 c-7 -8 -15 -12 -17 -11 -5 6 10 25 20 25 5 0 4 -6 -3 -14z m3819 8 c-3 -3 -12 -4 -19 -1 -8 3 -5 6 6 6 11 1 17 -2 13 -5z m6 -20 c10 -10 -10 -41 -52 -82 -50 -50 -85 -76 -53 -41 12 14 19 29 15 34 -5 4 -3 5 4 1 6 -3 21 4 32 16 23 24 28 44 9 32 -7 -4 -8 -3 -4 4 4 6 13 9 20 6 7 -3 16 2 20 12 4 12 2 15 -9 10 -8 -3 -15 -1 -15 4 0 11 23 13 33 4z m-3896 -36 c0 -13 -1 -17 -4 -10 -4 10 -14 6 -36 -15 -17 -15 -25 -19 -17 -8 8 11 24 28 35 37 11 10 20 17 20 18 1 0 1 -10 2 -22z m-77 -61 c0 -2 -15 -16 -32 -33 l-33 -29 29 33 c28 30 36 37 36 29z m-107 -111 c-15 -19 -32 -35 -37 -35 -6 -1 5 15 24 34 43 45 50 45 13 1z m27 1 c0 -2 -10 -12 -22 -23 l-23 -19 19 23 c18 21 26 27 26 19z m3790 -1 c0 -3 -4 -8 -10 -11 -5 -3 -10 -1 -10 4 0 6 5 11 10 11 6 0 10 -2 10 -4z m-90 -90 c-8 -8 -9 -6 -5 5 4 10 1 20 -4 24 -6 3 -8 11 -5 17 5 7 11 2 16 -12 5 -15 5 -27 -2 -34z m45 44 c-3 -5 -14 -10 -23 -9 -14 0 -13 2 3 9 27 11 27 11 20 0z m24 -31 c-7 -4 -16 -6 -20 -3 -4 2 -10 0 -14 -6 -3 -5 -1 -10 4 -10 6 0 2 -9 -10 -21 -11 -11 -24 -18 -27 -14 -4 3 0 10 8 15 8 6 11 10 6 10 -5 0 1 11 13 24 13 14 30 22 38 19 12 -5 12 -7 2 -14z m-3872 -4 c0 -8 -5 -11 -10 -8 -6 4 -8 0 -5 -8 4 -10 -1 -15 -14 -16 -20 -2 -20 -1 2 23 28 28 27 28 27 9z m3738 -45 c3 -6 -4 -10 -17 -10 -18 0 -20 2 -8 10 19 12 18 12 25 0z m-3813 -26 c-12 -8 -22 -20 -22 -26 0 -6 6 -6 15 2 13 11 14 10 10 -2 -4 -9 -17 -15 -30 -14 -24 1 -24 1 7 33 18 18 34 30 37 28 3 -3 -5 -12 -17 -21z m3834 -4 c0 -12 -4 -16 -9 -11 -5 5 -6 14 -3 20 10 15 12 14 12 -9z m-3926 -94 c0 -2 -7 -7 -16 -10 -8 -3 -12 -2 -9 4 6 10 25 14 25 6z m20 -26 c-19 -13 -30 -13 -30 0 0 6 10 10 23 10 18 0 19 -2 7 -10z m50 -15 c0 -1 -6 -8 -14 -15 -12 -9 -15 -8 -13 8 0 12 6 18 14 15 7 -3 13 -6 13 -8z m3618 -9 c-7 -8 -16 -12 -21 -9 -11 7 2 23 19 23 12 0 12 -2 2 -14z m-3598 -26 c8 -5 11 -10 5 -10 -5 0 -17 5 -25 10 -8 5 -10 10 -5 10 6 0 17 -5 25 -10z m3590 -15 c-7 -8 -17 -12 -22 -9 -6 4 -5 10 3 15 22 14 33 10 19 -6z m-3493 -37 c0 -13 -1 -17 -4 -10 -3 6 -12 12 -21 13 -14 0 -13 2 3 9 11 5 20 9 20 9 1 1 1 -9 2 -21z m3382 1 c-16 -10 -23 -4 -14 10 3 6 11 8 17 5 6 -4 5 -9 -3 -15z m-3324 1 c-3 -5 -11 -10 -16 -10 -6 0 -7 5 -4 10 3 6 11 10 16 10 6 0 7 -4 4 -10z m3252 4 c-3 -3 -12 -4 -19 -1 -8 3 -5 6 6 6 11 1 17 -2 13 -5z m-3234 -58 c-3 -4 -9 -2 -14 5 -13 22 -11 31 5 17 8 -7 12 -17 9 -22z m3187 -12 c0 -8 -19 -13 -24 -6 -3 5 1 9 9 9 8 0 15 -2 15 -3z m-3033 -47 c3 -5 1 -7 -5 -3 -5 3 -12 0 -15 -6 -3 -10 -9 -9 -22 3 -16 15 -15 17 9 17 15 0 29 -5 33 -11z m2933 3 c0 -5 -7 -10 -16 -10 -8 0 -12 5 -9 10 3 6 10 10 16 10 5 0 9 -4 9 -10z m-2750 -40 c0 -4 -6 -12 -13 -18 -10 -8 -13 -6 -13 7 0 10 6 18 13 18 7 0 13 -4 13 -7z m70 0 c0 -5 -5 -10 -11 -10 -5 0 -7 5 -4 10 3 6 8 10 11 10 2 0 4 -4 4 -10z m2504 -12 c-4 -6 2 -8 17 -4 21 6 22 5 6 -4 -14 -9 -22 -9 -32 0 -16 13 -10 34 6 24 5 -3 6 -10 3 -16z m-2641 -15 c-7 -2 -19 -2 -25 0 -7 3 -2 5 12 5 14 0 19 -2 13 -5z m137 -3 c0 -5 -8 -10 -17 -10 -15 0 -16 2 -3 10 19 12 20 12 20 0z m2582 -6 c-12 -8 -28 -12 -34 -8 -9 6 -5 10 12 15 41 11 46 10 22 -7z m-2658 -14 c10 0 17 -3 13 -6 -10 -10 -57 5 -57 18 0 9 3 9 12 0 7 -7 21 -12 32 -12z m56 -22 c0 -6 3 -8 7 -5 3 4 12 2 20 -4 10 -9 17 -8 29 1 12 11 15 11 12 0 -2 -7 8 -16 22 -20 17 -4 21 -8 12 -14 -7 -4 -18 -3 -25 2 -7 5 -27 13 -46 17 -39 8 -74 35 -47 35 9 0 16 -5 16 -12z m144 -10 c-5 -8 -2 -9 9 -5 10 3 17 3 17 -2 0 -5 -10 -11 -22 -15 -19 -5 -21 -8 -8 -16 12 -8 10 -10 -9 -10 -23 0 -24 1 -6 20 14 15 15 20 4 20 -11 0 -11 2 1 10 20 13 23 12 14 -2z m2143 -24 c-3 -3 -12 -4 -19 -1 -8 3 -5 6 6 6 11 1 17 -2 13 -5z m-2090 -16 c2 6 12 12 21 12 15 -1 14 -3 -3 -17 -19 -15 -18 -15 15 -9 25 4 31 3 20 -4 -8 -5 -13 -10 -10 -11 3 0 12 -2 20 -5 8 -2 29 -6 45 -10 17 -3 37 -8 45 -11 8 -3 23 -5 34 -4 10 2 22 -1 25 -7 3 -5 31 -14 61 -20 l55 -11 -55 6 c-30 3 -60 9 -66 14 -5 4 -20 6 -32 2 -12 -3 -22 -1 -22 5 0 5 -22 12 -48 16 -27 3 -52 10 -56 14 -4 4 -11 7 -14 8 -50 8 -70 18 -65 31 5 12 7 12 15 1 7 -10 11 -10 15 0z m2155 -10 c-19 -5 -41 -7 -50 -5 -10 3 -4 5 11 6 16 0 26 5 23 10 -3 4 7 6 22 3 l27 -6 -33 -8z m-72 -18 c0 -5 -4 -10 -10 -10 -5 0 -10 5 -10 10 0 6 5 10 10 10 6 0 10 -4 10 -10z m-1845 -18 c-3 -3 -11 0 -18 7 -9 10 -8 11 6 5 10 -3 15 -9 12 -12z m142 12 c-3 -3 -12 -4 -19 -1 -8 3 -5 6 6 6 11 1 17 -2 13 -5z m1500 -11 c0 -8 -6 -9 -19 -2 -12 7 -18 6 -18 -1 0 -6 -4 -8 -10 -5 -20 12 -10 24 18 22 16 -1 29 -7 29 -14z m42 0 c-12 -15 -12 -16 4 -10 10 4 31 7 45 7 21 0 24 2 12 10 -11 7 -5 8 20 4 50 -10 49 -12 -9 -20 -28 -4 -51 -10 -51 -13 0 -4 -8 -7 -17 -8 -10 -1 -38 -6 -63 -12 -25 -6 -58 -10 -75 -9 -16 0 -1 5 34 10 49 8 69 16 84 34 10 13 21 24 24 24 3 0 -1 -8 -8 -17z m-1602 1 c-3 -3 -12 -4 -19 -1 -8 3 -5 6 6 6 11 1 17 -2 13 -5z m60 -10 c-3 -3 -12 -4 -19 -1 -8 3 -5 6 6 6 11 1 17 -2 13 -5z m1443 -8 c0 -2 -9 -6 -20 -9 -11 -3 -20 -1 -20 4 0 5 9 9 20 9 11 0 20 -2 20 -4z m-1151 -62 c2 -2 -8 -4 -22 -4 -36 0 -39 -1 -59 -11 -12 -6 -18 -6 -18 1 0 5 7 10 15 10 8 0 15 4 15 10 0 8 58 3 69 -6z m96 -2 c2 -7 0 -10 -5 -7 -5 3 -20 8 -31 10 -35 7 -36 16 -1 13 17 -1 34 -8 37 -16z m695 8 c0 -5 -13 -7 -32 -3 -22 4 -29 3 -24 -5 4 -7 3 -12 -3 -12 -16 0 -22 18 -9 23 23 9 68 7 68 -3z m230 -2 c-47 -6 -87 -14 -90 -19 -6 -9 -77 -5 -88 6 -4 4 11 6 33 5 22 -2 47 0 55 3 29 10 41 12 108 13 l67 2 -85 -10z m-522 -5 c-53 -2 -143 -2 -200 0 -57 1 -13 3 97 3 110 0 156 -2 103 -3z" />
        <path d="M6240 7436 c0 -9 5 -16 10 -16 6 0 10 4 10 9 0 6 -4 13 -10 16 -5 3 -10 -1 -10 -9z" />
        <path d="M7247 6796 c10 -13 20 -20 21 -15 5 12 -17 39 -30 39 -5 0 -1 -11 9 -24z" />
        <path d="M6075 6740 c3 -5 8 -10 11 -10 2 0 4 5 4 10 0 6 -5 10 -11 10 -5 0 -7 -4 -4 -10z" />
        <path d="M5770 6556 c0 -9 5 -16 10 -16 6 0 10 4 10 9 0 6 -4 13 -10 16 -5 3 -10 -1 -10 -9z" />
        <path d="M7517 6318 c9 -18 23 -42 31 -53 13 -19 14 -19 7 5 -4 14 -12 28 -17 31 -5 3 -9 8 -8 10 3 9 -13 39 -20 39 -5 0 -1 -15 7 -32z" />
        <path d="M5700 5971 c0 -6 5 -13 10 -16 6 -3 10 1 10 9 0 9 -4 16 -10 16 -5 0 -10 -4 -10 -9z" />
        <path d="M4992 5358 c-7 -13 -19 -34 -28 -48 -9 -14 0 -7 20 15 36 40 43 55 28 55 -5 0 -14 -10 -20 -22z" />
        <path d="M5305 5240 c3 -5 8 -10 11 -10 2 0 4 5 4 10 0 6 -5 10 -11 10 -5 0 -7 -4 -4 -10z" />
        <path d="M5190 5050 c0 -5 5 -10 10 -10 6 0 10 5 10 10 0 6 -4 10 -10 10 -5 0 -10 -4 -10 -10z" />
        <path d="M5150 4981 c0 -6 5 -13 10 -16 6 -3 10 1 10 9 0 9 -4 16 -10 16 -5 0 -10 -4 -10 -9z" />
        <path d="M5040 4800 c0 -5 5 -10 10 -10 6 0 10 5 10 10 0 6 -4 10 -10 10 -5 0 -10 -4 -10 -10z" />
        <path d="M4420 4615 c-8 -9 -8 -15 -2 -15 12 0 26 19 19 26 -2 2 -10 -2 -17 -11z" />
        <path d="M4905 4580 c3 -5 8 -10 11 -10 2 0 4 5 4 10 0 6 -5 10 -11 10 -5 0 -7 -4 -4 -10z" />
        <path d="M2475 4320 c3 -5 10 -10 16 -10 5 0 9 5 9 10 0 6 -7 10 -16 10 -8 0 -12 -4 -9 -10z" />
        <path d="M4604 4139 c-3 -6 0 -17 7 -25 12 -11 14 -9 14 11 0 26 -9 32 -21 14z" />
        <path d="M2973 4003 c-15 -5 -17 -23 -4 -23 5 0 11 7 15 15 3 8 4 15 3 14 -1 0 -8 -3 -14 -6z" />
        <path d="M4476 3951 c-11 -12 -14 -21 -7 -26 6 -3 11 1 11 9 0 8 8 20 18 25 9 6 12 11 6 11 -6 0 -19 -9 -28 -19z" />
        <path d="M1396 3755 c-11 -8 -13 -15 -7 -20 6 -3 11 -2 11 4 0 5 10 11 23 13 17 2 18 5 7 9 -9 4 -24 1 -34 -6z" />
        <path d="M1350 3730 c0 -5 5 -10 10 -10 6 0 10 5 10 10 0 6 -4 10 -10 10 -5 0 -10 -4 -10 -10z" />
        <path d="M4175 3540 c-14 -16 -16 -23 -7 -32 9 -9 12 -8 12 4 0 9 7 24 16 32 8 9 11 16 6 16 -5 0 -17 -9 -27 -20z" />
        <path d="M1660 3100 c0 -5 5 -10 11 -10 5 0 7 5 4 10 -3 6 -8 10 -11 10 -2 0 -4 -4 -4 -10z" />
        <path d="M7390 2885 c7 -9 15 -13 17 -11 7 7 -7 26 -19 26 -6 0 -6 -6 2 -15z" />
        <path d="M7310 2691 c0 -6 5 -13 10 -16 6 -3 10 1 10 9 0 9 -4 16 -10 16 -5 0 -10 -4 -10 -9z" />
        <path d="M7296 2654 c-9 -23 -2 -28 13 -10 7 8 8 17 3 20 -6 3 -13 -1 -16 -10z" />
        <path d="M2210 2492 c0 -7 -7 -9 -17 -5 -15 5 -16 3 -5 -8 9 -10 15 -10 24 -1 6 6 9 15 5 19 -4 3 -7 1 -7 -5z" />
        <path d="M7010 2300 c0 -5 5 -10 10 -10 6 0 10 5 10 10 0 6 -4 10 -10 10 -5 0 -10 -4 -10 -10z" />
        <path d="M6742 1998 c-18 -16 -31 -33 -27 -36 3 -3 19 9 37 26 40 42 32 50 -10 10z" />
        <path d="M6686 1974 c-4 -10 -1 -14 6 -12 15 5 23 28 10 28 -5 0 -13 -7 -16 -16z" />
        <path d="M2810 1580 c0 -5 5 -10 10 -10 6 0 10 5 10 10 0 6 -4 10 -10 10 -5 0 -10 -4 -10 -10z" />
        <path d="M6144 1575 c-17 -13 -17 -14 -1 -15 9 0 17 4 17 10 0 5 7 7 15 4 8 -4 15 -1 15 5 0 15 -23 14 -46 -4z" />
        <path d="M6045 1510 c3 -5 8 -10 11 -10 2 0 4 5 4 10 0 6 -5 10 -11 10 -5 0 -7 -4 -4 -10z" />
      </g>
    </svg>