<svg version="1.1" id="Layer_1" xmlns="http://www.w3.org/2000/svg" xmlns:xlink="http://www.w3.org/1999/xlink" x="0px" y="0px"
	 width="100%" viewBox="0 0 108 113" enable-background="new 0 0 108 113" xml:space="preserve">
<path fill="#010102" opacity="1.000000" stroke="none" 
	d="
M66.000000,114.000000 
	C44.000000,114.000000 22.500000,114.000000 1.000000,114.000000 
	C1.000000,76.333336 1.000000,38.666668 1.000000,1.000000 
	C37.000000,1.000000 73.000000,1.000000 109.000000,1.000000 
	C109.000000,38.666668 109.000000,76.333336 109.000000,114.000000 
	C94.833336,114.000000 80.666664,114.000000 66.000000,114.000000 
M29.069098,57.539062 
	C21.118572,60.130329 13.168048,62.721596 5.080060,65.357666 
	C6.745419,70.350754 8.200938,74.714706 9.788010,79.473076 
	C18.343792,76.813179 26.534472,74.266785 34.398552,72.415115 
	C29.493572,79.236847 24.588593,86.058578 19.560675,93.051292 
	C23.779980,96.130135 27.525835,98.863495 31.569021,101.813820 
	C36.889503,94.750999 42.069458,87.874718 47.456070,82.086876 
	C47.456070,90.322578 47.456070,98.558281 47.456070,106.664001 
	C52.819393,106.664001 57.532276,106.664001 62.774971,106.664001 
	C62.774971,97.897285 62.774971,89.464561 63.378986,81.512253 
	C68.348640,88.272842 73.318298,95.033432 78.357597,101.888756 
	C82.490150,98.867905 86.324554,96.065002 90.450233,93.049171 
	C88.626495,90.489082 86.972824,88.267227 85.424973,85.973946 
	C82.319504,81.372917 79.271843,76.732880 76.927147,72.170319 
	C84.624115,74.588341 92.321083,77.006371 100.280457,79.506836 
	C101.909592,74.448120 103.351242,69.971588 104.801750,65.467545 
	C96.282318,62.516415 88.299126,59.751034 80.935837,56.461292 
	C88.884689,53.868835 96.833534,51.276379 104.918999,48.639362 
	C103.249001,43.643234 101.790726,39.280537 100.201530,34.526169 
	C91.646790,37.190498 83.456482,39.741322 75.601112,41.599342 
	C80.505287,34.774563 85.409454,27.949781 90.438286,20.951521 
	C86.221939,17.876808 82.474838,15.144289 78.429970,12.194624 
	C73.113411,19.251198 67.932365,26.127911 62.544090,31.915831 
	C62.544090,23.679430 62.544090,15.443030 62.544090,7.335577 
	C57.181137,7.335577 52.467941,7.335577 47.225067,7.335577 
	C47.225067,16.102146 47.225067,24.535183 46.621075,32.487755 
	C41.641815,25.723572 36.662560,18.959389 31.619549,12.108603 
	C27.355831,15.246046 23.523777,18.065851 19.479483,21.041832 
	C21.088898,23.213337 22.427420,24.897936 23.634962,26.671705 
	C27.066795,31.712738 30.445169,36.790165 33.107655,41.833603 
	C25.445421,39.424713 17.783188,37.015827 9.766900,34.495628 
	C8.156032,39.407307 6.691082,43.874065 5.168420,48.516800 
	C13.548656,51.421089 21.619465,54.218147 29.069098,57.539062 
z"/>
<path fill="#ED085A" opacity="1.000000" stroke="none" 
	d="
M62.751312,33.004623 
	C67.932365,26.127911 73.113411,19.251198 78.429970,12.194624 
	C82.474838,15.144289 86.221939,17.876808 90.438286,20.951521 
	C85.409454,27.949781 80.505287,34.774563 75.337532,42.122650 
	C74.576286,43.087280 74.078621,43.528599 73.172859,43.789795 
	C69.540474,44.485294 66.316177,45.360916 63.147018,46.221565 
	C62.507389,42.281261 61.951073,38.854191 61.480080,35.231289 
	C61.960705,34.358513 62.356010,33.681568 62.751312,33.004623 
z"/>
<path fill="#EC085A" opacity="1.000000" stroke="none" 
	d="
M47.249413,80.998436 
	C42.069458,87.874718 36.889503,94.750999 31.569021,101.813820 
	C27.525835,98.863495 23.779980,96.130135 19.560675,93.051292 
	C24.588593,86.058578 29.493572,79.236847 34.657764,71.889297 
	C35.417801,70.919090 35.918629,70.474693 36.827919,70.209175 
	C40.460621,69.512932 43.684868,68.637802 46.855289,67.777290 
	C47.494080,71.717209 48.049770,75.144592 48.520081,78.768051 
	C48.039608,79.642235 47.644512,80.320335 47.249413,80.998436 
z"/>
<path fill="#FDFDFD" opacity="1.000000" stroke="none" 
	d="
M62.647701,32.460224 
	C62.356010,33.681568 61.960705,34.358513 61.247078,35.543270 
	C59.022713,38.623714 57.116673,41.196346 54.962948,44.103283 
	C52.618984,40.868336 50.632587,38.126873 48.528667,35.215603 
	C48.015785,34.353275 47.620426,33.660748 47.225067,32.968220 
	C47.225067,24.535183 47.225067,16.102146 47.225067,7.335577 
	C52.467941,7.335577 57.181137,7.335577 62.544090,7.335577 
	C62.544090,15.443030 62.544090,23.679430 62.647701,32.460224 
z"/>
<path fill="#FDFDFD" opacity="1.000000" stroke="none" 
	d="
M47.352745,81.542656 
	C47.644512,80.320335 48.039608,79.642235 48.753860,78.456757 
	C50.977829,75.379051 52.882648,72.808716 55.039021,69.898933 
	C57.381416,73.134483 59.365120,75.874573 61.466938,78.784317 
	C61.981689,79.646584 62.378330,80.339203 62.774971,81.031830 
	C62.774971,89.464561 62.774971,97.897285 62.774971,106.664001 
	C57.532276,106.664001 52.819393,106.664001 47.456070,106.664001 
	C47.456070,98.558281 47.456070,90.322578 47.352745,81.542656 
z"/>
<path fill="#07E5DA" opacity="1.000000" stroke="none" 
	d="
M46.923073,32.727989 
	C47.620426,33.660748 48.015785,34.353275 48.154030,35.486347 
	C47.666882,39.290249 47.436852,42.653606 47.195454,46.183178 
	C43.491837,45.366817 40.212433,44.643963 36.930351,43.997139 
	C36.927677,44.073177 37.079620,44.081478 37.191208,43.784622 
	C36.907688,43.351902 36.512585,43.216034 35.841896,42.911369 
	C34.992409,42.446140 34.418499,42.149704 33.844585,41.853264 
	C30.445169,36.790165 27.066795,31.712738 23.634962,26.671705 
	C22.427420,24.897936 21.088898,23.213337 19.479483,21.041832 
	C23.523777,18.065851 27.355831,15.246046 31.619549,12.108603 
	C36.662560,18.959389 41.641815,25.723572 46.923073,32.727989 
z"/>
<path fill="#07E5DA" opacity="1.000000" stroke="none" 
	d="
M63.076981,81.272041 
	C62.378330,80.339203 61.981689,79.646584 61.843361,78.515518 
	C62.332500,74.713104 62.563335,71.349136 62.805672,67.817520 
	C66.506844,68.633286 69.786659,69.356178 73.069229,70.003098 
	C73.071976,69.927116 72.920158,69.918701 72.807587,70.215363 
	C73.090431,70.647469 73.485855,70.782913 74.159546,71.088913 
	C75.025307,71.542618 75.612808,71.825783 76.200317,72.108940 
	C79.271843,76.732880 82.319504,81.372917 85.424973,85.973946 
	C86.972824,88.267227 88.626495,90.489082 90.450233,93.049171 
	C86.324554,96.065002 82.490150,98.867905 78.357597,101.888756 
	C73.318298,95.033432 68.348640,88.272842 63.076981,81.272041 
z"/>
<path fill="#D038F8" opacity="1.000000" stroke="none" 
	d="
M73.580948,43.969917 
	C74.078621,43.528599 74.576286,43.087280 75.170067,42.469055 
	C83.456482,39.741322 91.646790,37.190498 100.201530,34.526169 
	C101.790726,39.280537 103.249001,43.643234 104.918999,48.639362 
	C96.833534,51.276379 88.884689,53.868835 80.365509,56.720551 
	C79.274551,56.983639 78.753906,56.987473 77.954803,56.732235 
	C74.311447,55.355053 70.946548,54.236935 67.259026,53.011612 
	C69.620422,49.634315 71.600685,46.802113 73.580948,43.969917 
z"/>
<path fill="#D038F8" opacity="1.000000" stroke="none" 
	d="
M36.419456,70.030296 
	C35.918629,70.474693 35.417801,70.919090 34.821064,71.541946 
	C26.534472,74.266785 18.343792,76.813179 9.788010,79.473076 
	C8.200938,74.714706 6.745419,70.350754 5.080060,65.357666 
	C13.168048,62.721596 21.118572,60.130329 29.638901,57.279224 
	C30.727015,57.015610 31.245323,57.011837 32.042278,57.267376 
	C35.687778,58.643990 39.054634,59.761292 42.745045,60.985970 
	C40.381519,64.365334 38.400486,67.197815 36.419456,70.030296 
z"/>
<path fill="#00B5EC" opacity="1.000000" stroke="none" 
	d="
M31.763634,57.008064 
	C31.245323,57.011837 30.727015,57.015610 29.949490,57.017296 
	C21.619465,54.218147 13.548656,51.421089 5.168420,48.516800 
	C6.691082,43.874065 8.156032,39.407307 9.766900,34.495628 
	C17.783188,37.015827 25.445421,39.424713 33.476120,41.843433 
	C34.418499,42.149704 34.992409,42.446140 35.883385,43.170349 
	C36.493511,43.759239 36.786564,43.920361 37.079620,44.081478 
	C37.079620,44.081478 36.927677,44.073177 36.946259,44.355309 
	C38.758171,47.295177 40.551498,49.952908 42.558243,52.926922 
	C38.678562,54.393723 35.221096,55.700890 31.763634,57.008064 
z"/>
<path fill="#00B5EB" opacity="1.000000" stroke="none" 
	d="
M78.233269,56.991302 
	C78.753906,56.987473 79.274551,56.983639 80.055557,56.982731 
	C88.299126,59.751034 96.282318,62.516415 104.801750,65.467545 
	C103.351242,69.971588 101.909592,74.448120 100.280457,79.506836 
	C92.321083,77.006371 84.624115,74.588341 76.563736,72.139633 
	C75.612808,71.825783 75.025307,71.542618 74.117241,70.830833 
	C73.504501,70.241043 73.212334,70.079872 72.920158,69.918701 
	C72.920158,69.918701 73.071976,69.927116 73.053337,69.644943 
	C71.241318,66.705406 69.447937,64.048042 67.438393,61.070389 
	C71.318459,59.604218 74.775864,58.297764 78.233269,56.991302 
z"/>
<path fill="#040406" opacity="1.000000" stroke="none" 
	d="
M77.954803,56.732239 
	C74.775864,58.297764 71.318459,59.604218 67.438393,61.070389 
	C69.447937,64.048042 71.241318,66.705406 73.050591,69.720917 
	C69.786659,69.356178 66.506844,68.633286 62.805672,67.817520 
	C62.563335,71.349136 62.332500,74.713104 61.725250,78.345871 
	C59.365120,75.874573 57.381416,73.134483 55.039021,69.898933 
	C52.882648,72.808716 50.977829,75.379051 48.839233,78.260681 
	C48.049770,75.144592 47.494080,71.717209 46.855289,67.777290 
	C43.684868,68.637802 40.460621,69.512932 36.827919,70.209175 
	C38.400486,67.197815 40.381519,64.365334 42.745045,60.985970 
	C39.054634,59.761292 35.687778,58.643990 32.042278,57.267372 
	C35.221096,55.700890 38.678562,54.393723 42.558243,52.926922 
	C40.551498,49.952908 38.758171,47.295177 36.948936,44.279274 
	C40.212433,44.643963 43.491837,45.366817 47.195454,46.183178 
	C47.436852,42.653606 47.666882,39.290249 48.271553,35.656151 
	C50.632587,38.126873 52.618984,40.868336 54.962948,44.103283 
	C57.116673,41.196346 59.022713,38.623714 61.161755,35.739101 
	C61.951073,38.854191 62.507389,42.281261 63.147018,46.221565 
	C66.316177,45.360916 69.540474,44.485294 73.172859,43.789795 
	C71.600685,46.802113 69.620422,49.634315 67.259026,53.011612 
	C70.946548,54.236935 74.311447,55.355053 77.954803,56.732239 
z"/>
<path fill="#040406" opacity="1.000000" stroke="none" 
	d="
M37.191208,43.784622 
	C36.786564,43.920361 36.493511,43.759239 36.158966,43.339142 
	C36.512585,43.216034 36.907688,43.351902 37.191208,43.784622 
z"/>
<path fill="#040406" opacity="1.000000" stroke="none" 
	d="
M72.807587,70.215363 
	C73.212334,70.079872 73.504501,70.241043 73.838982,70.660294 
	C73.485855,70.782913 73.090431,70.647469 72.807587,70.215363 
z"/>
</svg>